<svg id="visual" viewBox="0 0 900 600" width="900" height="600" xmlns="http://www.w3.org/2000/svg" xmlns:xlink="http://www.w3.org/1999/xlink" version="1.1"><path d="M836 600L827 600L827 571L881 571L881 543L818 543L818 514L899 514L899 486L854 486L854 457L899 457L899 429L836 429L836 400L845 400L845 371L836 371L836 343L863 343L863 314L872 314L872 286L845 286L845 257L863 257L863 229L818 229L818 200L890 200L890 171L872 171L872 143L881 143L881 114L899 114L899 86L890 86L890 57L845 57L845 29L890 29L890 0L900 0L900 29L900 29L900 57L900 57L900 86L900 86L900 114L900 114L900 143L900 143L900 171L900 171L900 200L900 200L900 229L900 229L900 257L900 257L900 286L900 286L900 314L900 314L900 343L900 343L900 371L900 371L900 400L900 400L900 429L900 429L900 457L900 457L900 486L900 486L900 514L900 514L900 543L900 543L900 571L900 571L900 600L900 600Z" fill="#dedbd2"></path><path d="M782 600L809 600L809 571L818 571L818 543L746 543L746 514L872 514L872 486L836 486L836 457L845 457L845 429L764 429L764 400L845 400L845 371L782 371L782 343L800 343L800 314L818 314L818 286L818 286L818 257L854 257L854 229L782 229L782 200L845 200L845 171L845 171L845 143L809 143L809 114L854 114L854 86L845 86L845 57L800 57L800 29L854 29L854 0L891 0L891 29L846 29L846 57L891 57L891 86L900 86L900 114L882 114L882 143L873 143L873 171L891 171L891 200L819 200L819 229L864 229L864 257L846 257L846 286L873 286L873 314L864 314L864 343L837 343L837 371L846 371L846 400L837 400L837 429L900 429L900 457L855 457L855 486L900 486L900 514L819 514L819 543L882 543L882 571L828 571L828 600L837 600Z" fill="#e1ded6"></path><path d="M710 600L791 600L791 571L782 571L782 543L692 543L692 514L791 514L791 486L809 486L809 457L782 457L782 429L710 429L710 400L773 400L773 371L719 371L719 343L773 343L773 314L773 314L773 286L809 286L809 257L800 257L800 229L737 229L737 200L818 200L818 171L809 171L809 143L737 143L737 114L764 114L764 86L827 86L827 57L755 57L755 29L791 29L791 0L855 0L855 29L801 29L801 57L846 57L846 86L855 86L855 114L810 114L810 143L846 143L846 171L846 171L846 200L783 200L783 229L855 229L855 257L819 257L819 286L819 286L819 314L801 314L801 343L783 343L783 371L846 371L846 400L765 400L765 429L846 429L846 457L837 457L837 486L873 486L873 514L747 514L747 543L819 543L819 571L810 571L810 600L783 600Z" fill="#e4e2da"></path><path d="M665 600L746 600L746 571L764 571L764 543L629 543L629 514L773 514L773 486L728 486L728 457L692 457L692 429L638 429L638 400L710 400L710 371L629 371L629 343L674 343L674 314L737 314L737 286L800 286L800 257L773 257L773 229L665 229L665 200L782 200L782 171L710 171L710 143L728 143L728 114L737 114L737 86L755 86L755 57L719 57L719 29L683 29L683 0L792 0L792 29L756 29L756 57L828 57L828 86L765 86L765 114L738 114L738 143L810 143L810 171L819 171L819 200L738 200L738 229L801 229L801 257L810 257L810 286L774 286L774 314L774 314L774 343L720 343L720 371L774 371L774 400L711 400L711 429L783 429L783 457L810 457L810 486L792 486L792 514L693 514L693 543L783 543L783 571L792 571L792 600L711 600Z" fill="#e7e5de"></path><path d="M656 600L692 600L692 571L593 571L593 543L521 543L521 514L611 514L611 486L674 486L674 457L620 457L620 429L494 429L494 400L656 400L656 371L611 371L611 343L440 343L440 314L674 314L674 286L611 286L611 257L539 257L539 229L602 229L602 200L611 200L611 171L656 171L656 143L539 143L539 114L737 114L737 86L665 86L665 57L719 57L719 29L539 29L539 0L684 0L684 29L720 29L720 57L756 57L756 86L738 86L738 114L729 114L729 143L711 143L711 171L783 171L783 200L666 200L666 229L774 229L774 257L801 257L801 286L738 286L738 314L675 314L675 343L630 343L630 371L711 371L711 400L639 400L639 429L693 429L693 457L729 457L729 486L774 486L774 514L630 514L630 543L765 543L765 571L747 571L747 600L666 600Z" fill="#eae8e2"></path><path d="M638 600L602 600L602 571L548 571L548 543L440 543L440 514L593 514L593 486L575 486L575 457L611 457L611 429L485 429L485 400L584 400L584 371L521 371L521 343L431 343L431 314L620 314L620 286L539 286L539 257L476 257L476 229L548 229L548 200L575 200L575 171L620 171L620 143L485 143L485 114L710 114L710 86L665 86L665 57L629 57L629 29L503 29L503 0L540 0L540 29L720 29L720 57L666 57L666 86L738 86L738 114L540 114L540 143L657 143L657 171L612 171L612 200L603 200L603 229L540 229L540 257L612 257L612 286L675 286L675 314L441 314L441 343L612 343L612 371L657 371L657 400L495 400L495 429L621 429L621 457L675 457L675 486L612 486L612 514L522 514L522 543L594 543L594 571L693 571L693 600L657 600Z" fill="#edebe6"></path><path d="M575 600L440 600L440 571L548 571L548 543L305 543L305 514L539 514L539 486L512 486L512 457L584 457L584 429L476 429L476 400L566 400L566 371L413 371L413 343L422 343L422 314L548 314L548 286L458 286L458 257L377 257L377 229L476 229L476 200L449 200L449 171L467 171L467 143L476 143L476 114L539 114L539 86L476 86L476 57L530 57L530 29L458 29L458 0L504 0L504 29L630 29L630 57L666 57L666 86L711 86L711 114L486 114L486 143L621 143L621 171L576 171L576 200L549 200L549 229L477 229L477 257L540 257L540 286L621 286L621 314L432 314L432 343L522 343L522 371L585 371L585 400L486 400L486 429L612 429L612 457L576 457L576 486L594 486L594 514L441 514L441 543L549 543L549 571L603 571L603 600L639 600Z" fill="#f0efea"></path><path d="M512 600L377 600L377 571L539 571L539 543L296 543L296 514L512 514L512 486L458 486L458 457L566 457L566 429L431 429L431 400L503 400L503 371L395 371L395 343L404 343L404 314L539 314L539 286L404 286L404 257L377 257L377 229L458 229L458 200L404 200L404 171L404 171L404 143L467 143L467 114L512 114L512 86L440 86L440 57L521 57L521 29L422 29L422 0L459 0L459 29L531 29L531 57L477 57L477 86L540 86L540 114L477 114L477 143L468 143L468 171L450 171L450 200L477 200L477 229L378 229L378 257L459 257L459 286L549 286L549 314L423 314L423 343L414 343L414 371L567 371L567 400L477 400L477 429L585 429L585 457L513 457L513 486L540 486L540 514L306 514L306 543L549 543L549 571L441 571L441 600L576 600Z" fill="#f3f2ee"></path><path d="M215 600L116 600L116 571L197 571L197 543L71 543L71 514L476 514L476 486L323 486L323 457L395 457L395 429L269 429L269 400L260 400L260 371L224 371L224 343L341 343L341 314L251 314L251 286L53 286L53 257L296 257L296 229L260 229L260 200L233 200L233 171L296 171L296 143L350 143L350 114L377 114L377 86L143 86L143 57L170 57L170 29L206 29L206 0L423 0L423 29L522 29L522 57L441 57L441 86L513 86L513 114L468 114L468 143L405 143L405 171L405 171L405 200L459 200L459 229L378 229L378 257L405 257L405 286L540 286L540 314L405 314L405 343L396 343L396 371L504 371L504 400L432 400L432 429L567 429L567 457L459 457L459 486L513 486L513 514L297 514L297 543L540 543L540 571L378 571L378 600L513 600Z" fill="#f6f5f2"></path><path d="M89 600L98 600L98 571L125 571L125 543L44 543L44 514L332 514L332 486L323 486L323 457L287 457L287 429L170 429L170 400L161 400L161 371L134 371L134 343L278 343L278 314L179 314L179 286L44 286L44 257L269 257L269 229L224 229L224 200L125 200L125 171L260 171L260 143L269 143L269 114L350 114L350 86L143 86L143 57L62 57L62 29L80 29L80 0L207 0L207 29L171 29L171 57L144 57L144 86L378 86L378 114L351 114L351 143L297 143L297 171L234 171L234 200L261 200L261 229L297 229L297 257L54 257L54 286L252 286L252 314L342 314L342 343L225 343L225 371L261 371L261 400L270 400L270 429L396 429L396 457L324 457L324 486L477 486L477 514L72 514L72 543L198 543L198 571L117 571L117 600L216 600Z" fill="#f9f8f7"></path><path d="M26 600L44 600L44 571L44 571L44 543L8 543L8 514L71 514L71 486L44 486L44 457L26 457L26 429L80 429L80 400L8 400L8 371L80 371L80 343L26 343L26 314L125 314L125 286L35 286L35 257L71 257L71 229L71 229L71 200L17 200L17 171L26 171L26 143L35 143L35 114L53 114L53 86L125 86L125 57L53 57L53 29L71 29L71 0L81 0L81 29L63 29L63 57L144 57L144 86L351 86L351 114L270 114L270 143L261 143L261 171L126 171L126 200L225 200L225 229L270 229L270 257L45 257L45 286L180 286L180 314L279 314L279 343L135 343L135 371L162 371L162 400L171 400L171 429L288 429L288 457L324 457L324 486L333 486L333 514L45 514L45 543L126 543L126 571L99 571L99 600L90 600Z" fill="#fcfcfb"></path><path d="M0 600L0 600L0 571L0 571L0 543L0 543L0 514L0 514L0 486L0 486L0 457L0 457L0 429L0 429L0 400L0 400L0 371L0 371L0 343L0 343L0 314L0 314L0 286L0 286L0 257L0 257L0 229L0 229L0 200L0 200L0 171L0 171L0 143L0 143L0 114L0 114L0 86L0 86L0 57L0 57L0 29L0 29L0 0L72 0L72 29L54 29L54 57L126 57L126 86L54 86L54 114L36 114L36 143L27 143L27 171L18 171L18 200L72 200L72 229L72 229L72 257L36 257L36 286L126 286L126 314L27 314L27 343L81 343L81 371L9 371L9 400L81 400L81 429L27 429L27 457L45 457L45 486L72 486L72 514L9 514L9 543L45 543L45 571L45 571L45 600L27 600Z" fill="#ffffff"></path></svg>