<svg id="visual" viewBox="0 0 960 540" width="960" height="540" xmlns="http://www.w3.org/2000/svg" xmlns:xlink="http://www.w3.org/1999/xlink" version="1.1"><rect x="0" y="0" width="960" height="540" fill="#03071e"></rect><g fill="#6a040f"><circle r="13" cx="528" cy="318"></circle><circle r="1" cx="397" cy="523"></circle><circle r="7" cx="679" cy="41"></circle><circle r="1" cx="167" cy="148"></circle><circle r="4" cx="433" cy="150"></circle><circle r="1" cx="813" cy="408"></circle><circle r="5" cx="655" cy="24"></circle><circle r="4" cx="406" cy="58"></circle><circle r="4" cx="40" cy="159"></circle><circle r="6" cx="629" cy="245"></circle><circle r="10" cx="194" cy="506"></circle><circle r="7" cx="138" cy="511"></circle><circle r="3" cx="376" cy="538"></circle><circle r="6" cx="823" cy="158"></circle><circle r="11" cx="311" cy="291"></circle><circle r="3" cx="577" cy="247"></circle><circle r="6" cx="831" cy="388"></circle><circle r="10" cx="914" cy="461"></circle><circle r="11" cx="80" cy="75"></circle><circle r="6" cx="419" cy="20"></circle><circle r="7" cx="324" cy="355"></circle><circle r="5" cx="71" cy="135"></circle><circle r="9" cx="603" cy="40"></circle><circle r="10" cx="149" cy="462"></circle><circle r="3" cx="471" cy="100"></circle><circle r="1" cx="929" cy="232"></circle><circle r="6" cx="268" cy="455"></circle></g></svg>