<svg width="400" height="400" viewBox="0 0 400 400" fill="none" xmlns="http://www.w3.org/2000/svg">
<mask id="mask0_270_107565" style="mask-type:alpha" maskUnits="userSpaceOnUse" x="6" y="16" width="331" height="331">
<circle cx="171.5" cy="181.5" r="165.5" fill="#F56F46"/>
</mask>
<g mask="url(#mask0_270_107565)">
<circle cx="171.5" cy="181.5" r="165.5" fill="#F56F46"/>
<path fill-rule="evenodd" clip-rule="evenodd" d="M333.529 -99.8159C311.166 -99.8159 290.2 -112.897 279.95 -133.454L262.246 -173.165H86.601L68.8968 -133.454C58.6469 -112.897 37.6813 -99.8159 15.318 -99.8159H6L81.0102 473.43C84.7374 484.176 91.726 484.176 95.9191 473.43L170.463 290.29L235.224 472.963C238.951 483.708 245.94 483.708 250.133 472.963L336.79 -99.3487L333.529 -99.8159Z" fill="url(#paint0_linear_270_107565)"/>
<path fill-rule="evenodd" clip-rule="evenodd" d="M255.247 -189.048H94.0454L69.3526 -133.452C60.9663 -116.633 44.6598 -104.486 26.9555 -101.216L83.7956 252.45C87.5228 258.99 94.5113 258.99 98.7044 252.45L171.385 141.725L238.009 251.982C242.202 258.523 248.725 258.523 252.918 251.982L317.212 -102.15C301.372 -106.822 287.395 -118.035 279.94 -133.452L255.247 -189.048Z" fill="url(#paint1_linear_270_107565)"/>
<path fill-rule="evenodd" clip-rule="evenodd" d="M279.953 -133.453L174.194 -370.32L68.8999 -133.453C65.1727 -126.445 60.5136 -120.372 54.9228 -115.233L98.7176 119.766C101.047 123.036 107.104 123.97 111.297 119.766L170.001 41.7443L228.704 119.298C232.431 123.97 238.954 123.036 241.284 119.298L289.737 -118.503C286.01 -123.175 282.749 -127.847 279.953 -133.453Z" fill="url(#paint2_linear_270_107565)"/>
<g filter="url(#filter0_d_270_107565)">
<path d="M62.8302 349.533C55.4676 349.533 51.7862 349.533 48.9842 348.078C46.6229 346.851 44.6976 344.926 43.471 342.564C42.0154 339.762 42.0154 336.081 42.0154 328.718L42.0154 123.31C42.0154 115.607 42.0154 111.756 43.5383 108.824C44.8215 106.354 46.8358 104.339 49.3063 103.056C52.2379 101.533 56.0894 101.533 63.7923 101.533L277.603 101.533C285.306 101.533 289.158 101.533 292.089 103.056C294.56 104.339 296.574 106.354 297.858 108.824C299.38 111.756 299.38 115.607 299.38 123.31L299.38 328.718C299.38 336.081 299.38 339.762 297.925 342.564C296.698 344.926 294.773 346.851 292.412 348.078C289.61 349.533 285.928 349.533 278.566 349.533L62.8302 349.533Z" fill="white"/>
<g clip-path="url(#clip0_270_107565)">
<path d="M192.463 217.628C188.887 217.628 185.989 214.686 185.989 211.057V151.918C185.989 148.289 188.887 145.347 192.463 145.347H270.157C273.733 145.347 276.632 148.289 276.632 151.918V211.057C276.632 214.686 273.733 217.628 270.157 217.628H192.463Z" fill="#F5F7FA"/>
<path d="M171.566 217.629H262.209L222.238 183.885C212.302 175.497 197.257 177.751 190.215 188.681L171.566 217.629Z" fill="white"/>
<path d="M303.411 217.628H212.768L240.56 174.287C249.145 160.901 268.773 161.102 277.082 174.661L303.411 217.628Z" fill="#D0D3D8"/>
<path fill-rule="evenodd" clip-rule="evenodd" d="M262.203 217.626H212.764L230.128 190.549L262.203 217.626Z" fill="#F5F7FA"/>
<ellipse cx="227.625" cy="164.135" rx="10.874" ry="10.901" fill="#D0D3D8"/>
</g>
<g clip-path="url(#clip1_270_107565)">
<path d="M74.2624 301.364C70.6867 301.364 67.7879 298.422 67.7879 294.793V235.654C67.7879 232.025 70.6867 229.083 74.2624 229.083H151.956C155.532 229.083 158.431 232.025 158.431 235.654V294.793C158.431 298.422 155.532 301.364 151.956 301.364H74.2624Z" fill="#F5F7FA"/>
<ellipse cx="110.188" cy="254.705" rx="4.25624" ry="4.26681" fill="#454F59"/>
<ellipse cx="122.672" cy="258.432" rx="4.25625" ry="4.26681" fill="#454F59"/>
<ellipse cx="103.281" cy="265.358" rx="4.25625" ry="4.2668" fill="#E5EAF0"/>
<ellipse cx="110.718" cy="275.743" rx="4.25625" ry="4.2668" fill="#E5EAF0"/>
<ellipse cx="122.938" cy="271.215" rx="4.25624" ry="4.2668" fill="#454F59"/>
</g>
<rect x="186.375" y="254.362" width="57.2025" height="4.91524" rx="2.45762" fill="#D0D3D8"/>
<rect x="186.373" y="272.385" width="89.8909" height="4.91524" rx="2.45762" fill="#E5EAF0"/>
<rect x="67.541" y="170.626" width="57.2025" height="4.91524" rx="2.45762" fill="#D0D3D8"/>
<rect x="67.541" y="188.648" width="89.8909" height="4.91524" rx="2.45762" fill="#E5EAF0"/>
<rect x="98.563" y="119.951" width="19.6123" height="4.91524" rx="2.45762" fill="#D0D3D8"/>
<rect x="131.25" y="119.951" width="19.6123" height="4.91524" rx="2.45762" fill="#D0D3D8"/>
<rect x="163.937" y="119.951" width="19.6123" height="4.91524" rx="2.45762" fill="#D0D3D8"/>
<path d="M76.0955 131.386C80.8201 131.386 84.6502 127.542 84.6502 122.8C84.6502 118.059 80.8201 114.215 76.0955 114.215C71.371 114.215 67.541 118.059 67.541 122.8C67.541 127.542 71.371 131.386 76.0955 131.386Z" fill="#D0D3D8"/>
<rect x="244.856" y="116.177" width="31.4333" height="11.5027" rx="5.75133" fill="#D0D3D8" stroke="#D0D3D8" stroke-width="0.646421"/>
<rect x="255.156" y="120.77" width="11.4405" height="2.45762" rx="1.22881" fill="white"/>
</g>
</g>
<g filter="url(#filter1_d_270_107565)">
<rect x="100" y="295.355" width="142.967" height="66" rx="8" fill="white"/>
<rect x="108" y="303.355" width="126.967" height="50" rx="4" fill="#005BC6"/>
<path d="M127.656 321.559V334.355H125.45V321.559H127.656ZM132.288 326.876V334.355H130.17V324.846H132.165L132.288 326.876ZM131.91 329.249L131.225 329.24C131.23 328.566 131.324 327.948 131.506 327.386C131.693 326.823 131.951 326.34 132.279 325.935C132.613 325.531 133.012 325.221 133.475 325.004C133.938 324.781 134.453 324.67 135.021 324.67C135.479 324.67 135.892 324.734 136.261 324.863C136.636 324.986 136.955 325.188 137.219 325.47C137.488 325.751 137.693 326.117 137.834 326.568C137.975 327.014 138.045 327.561 138.045 328.212V334.355H135.918V328.203C135.918 327.746 135.851 327.386 135.716 327.122C135.587 326.852 135.396 326.662 135.145 326.551C134.898 326.434 134.591 326.375 134.222 326.375C133.858 326.375 133.533 326.451 133.246 326.603C132.959 326.756 132.716 326.964 132.517 327.227C132.323 327.491 132.174 327.796 132.068 328.142C131.963 328.487 131.91 328.856 131.91 329.249ZM145.542 331.78C145.542 331.569 145.489 331.379 145.384 331.209C145.278 331.033 145.076 330.875 144.777 330.734C144.484 330.594 144.051 330.465 143.477 330.348C142.973 330.236 142.51 330.104 142.088 329.952C141.672 329.794 141.314 329.603 141.016 329.381C140.717 329.158 140.485 328.894 140.321 328.59C140.157 328.285 140.075 327.934 140.075 327.535C140.075 327.148 140.16 326.782 140.33 326.436C140.5 326.091 140.743 325.786 141.06 325.522C141.376 325.259 141.76 325.051 142.211 324.898C142.668 324.746 143.178 324.67 143.74 324.67C144.537 324.67 145.22 324.805 145.788 325.074C146.362 325.338 146.802 325.698 147.106 326.155C147.411 326.606 147.563 327.116 147.563 327.685H145.445C145.445 327.433 145.381 327.198 145.252 326.981C145.129 326.759 144.941 326.58 144.689 326.445C144.438 326.305 144.121 326.234 143.74 326.234C143.377 326.234 143.075 326.293 142.835 326.41C142.601 326.521 142.425 326.668 142.308 326.85C142.196 327.031 142.141 327.23 142.141 327.447C142.141 327.605 142.17 327.749 142.229 327.878C142.293 328.001 142.398 328.115 142.545 328.221C142.691 328.32 142.891 328.414 143.143 328.502C143.4 328.59 143.723 328.675 144.109 328.757C144.836 328.909 145.46 329.105 145.981 329.346C146.509 329.58 146.913 329.885 147.194 330.26C147.476 330.629 147.616 331.098 147.616 331.666C147.616 332.088 147.525 332.475 147.344 332.826C147.168 333.172 146.91 333.474 146.57 333.731C146.23 333.983 145.823 334.18 145.349 334.32C144.88 334.461 144.353 334.531 143.767 334.531C142.905 334.531 142.176 334.379 141.578 334.074C140.98 333.764 140.526 333.368 140.216 332.888C139.911 332.401 139.759 331.897 139.759 331.376H141.807C141.83 331.768 141.938 332.082 142.132 332.316C142.331 332.545 142.577 332.712 142.87 332.817C143.169 332.917 143.477 332.967 143.793 332.967C144.174 332.967 144.493 332.917 144.751 332.817C145.009 332.712 145.205 332.571 145.34 332.395C145.475 332.214 145.542 332.009 145.542 331.78ZM153.83 324.846V326.393H148.469V324.846H153.83ZM150.016 322.517H152.134V331.727C152.134 332.02 152.175 332.246 152.257 332.404C152.345 332.557 152.465 332.659 152.617 332.712C152.77 332.765 152.948 332.791 153.153 332.791C153.3 332.791 153.44 332.782 153.575 332.765C153.71 332.747 153.818 332.729 153.9 332.712L153.909 334.329C153.733 334.382 153.528 334.429 153.294 334.47C153.065 334.511 152.802 334.531 152.503 334.531C152.017 334.531 151.586 334.446 151.211 334.276C150.836 334.101 150.543 333.816 150.332 333.424C150.121 333.031 150.016 332.51 150.016 331.859V322.517ZM160.826 332.448V327.913C160.826 327.573 160.765 327.28 160.642 327.034C160.519 326.788 160.331 326.598 160.079 326.463C159.833 326.328 159.522 326.261 159.147 326.261C158.802 326.261 158.503 326.319 158.251 326.436C157.999 326.554 157.803 326.712 157.662 326.911C157.521 327.11 157.451 327.336 157.451 327.588H155.342C155.342 327.213 155.433 326.85 155.614 326.498C155.796 326.146 156.06 325.833 156.405 325.558C156.751 325.282 157.164 325.065 157.645 324.907C158.125 324.749 158.664 324.67 159.262 324.67C159.977 324.67 160.609 324.79 161.16 325.03C161.717 325.27 162.153 325.634 162.47 326.12C162.792 326.601 162.953 327.204 162.953 327.931V332.158C162.953 332.592 162.982 332.981 163.041 333.327C163.105 333.667 163.196 333.963 163.313 334.215V334.355H161.143C161.043 334.127 160.964 333.837 160.905 333.485C160.853 333.128 160.826 332.782 160.826 332.448ZM161.134 328.572L161.151 329.882H159.631C159.238 329.882 158.893 329.92 158.594 329.996C158.295 330.066 158.046 330.172 157.847 330.312C157.647 330.453 157.498 330.623 157.398 330.822C157.299 331.021 157.249 331.247 157.249 331.499C157.249 331.751 157.308 331.982 157.425 332.193C157.542 332.398 157.712 332.56 157.935 332.677C158.163 332.794 158.438 332.852 158.761 332.852C159.194 332.852 159.572 332.765 159.895 332.589C160.223 332.407 160.48 332.187 160.668 331.93C160.855 331.666 160.955 331.417 160.967 331.183L161.652 332.123C161.582 332.363 161.462 332.621 161.292 332.896C161.122 333.172 160.899 333.435 160.624 333.687C160.354 333.934 160.029 334.136 159.648 334.294C159.273 334.452 158.84 334.531 158.348 334.531C157.727 334.531 157.173 334.408 156.687 334.162C156.2 333.91 155.819 333.573 155.544 333.151C155.269 332.724 155.131 332.24 155.131 331.701C155.131 331.197 155.225 330.752 155.412 330.365C155.605 329.973 155.887 329.644 156.256 329.381C156.631 329.117 157.088 328.918 157.627 328.783C158.166 328.643 158.781 328.572 159.473 328.572H161.134ZM167.436 320.855V334.355H165.309V320.855H167.436ZM172.023 320.855V334.355H169.896V320.855H172.023Z" fill="white"/>
<path d="M216.199 320.513C219.889 324.212 219.889 330.209 216.199 333.908C212.51 337.607 206.527 337.607 202.838 333.908C199.148 330.209 199.148 324.212 202.838 320.513C206.527 316.814 212.51 316.814 216.199 320.513" stroke="white" stroke-width="2.02963" stroke-linecap="round" stroke-linejoin="round"/>
<path d="M216.2 320.506L217.971 318.732" stroke="white" stroke-width="2.02963" stroke-linecap="round" stroke-linejoin="round"/>
<path d="M217.474 318.235L218.469 319.232" stroke="white" stroke-width="2.02963" stroke-linecap="round" stroke-linejoin="round"/>
<path d="M209.518 327.21L213.652 323.066" stroke="white" stroke-width="2.02963" stroke-linecap="round" stroke-linejoin="round"/>
<path d="M189.647 322.139L195.494 322.139" stroke="white" stroke-width="2.02963" stroke-linecap="round" stroke-linejoin="round"/>
<path d="M186.768 327.065L195.494 327.141" stroke="white" stroke-width="2.02963" stroke-linecap="round" stroke-linejoin="round"/>
<path d="M182 332.139L195.494 332.277" stroke="white" stroke-width="2.02963" stroke-linecap="round" stroke-linejoin="round"/>
</g>
<path d="M357.482 225.925C378.476 246.971 394 262.533 394 262.533" stroke="#172153" stroke-width="8" stroke-linecap="round"/>
<path d="M349.651 218.195C354.119 222.674 357.423 225.985 357.423 225.985" stroke="#FFD147" stroke-width="8" stroke-linecap="round"/>
<rect x="355.465" y="209.499" width="6.06016" height="1.5188" rx="0.759399" fill="#FFD147"/>
<rect x="359.252" y="207.221" width="6.07519" height="1.51544" rx="0.75772" transform="rotate(90 359.252 207.221)" fill="#FFD147"/>
<rect width="3.05687" height="3.05687" rx="1.09147" transform="matrix(0.706235 0.707978 -0.706235 0.707978 358.495 208.095)" fill="#FFD147"/>
<rect width="3.0598" height="3.05394" rx="1.09147" transform="matrix(0.258225 0.966085 -0.965766 0.259415 310.521 206.511)" fill="#005BC6"/>
<rect width="6.06393" height="1.51786" rx="0.75893" transform="matrix(0.865491 0.500924 -0.499076 0.866558 307.209 206.208)" fill="#005BC6"/>
<rect width="6.07184" height="1.51628" rx="0.75814" transform="matrix(-0.499076 0.866558 -0.865491 -0.500925 311.625 206.134)" fill="#005BC6"/>
<rect width="3.0598" height="3.05394" rx="1.09147" transform="matrix(0.258225 0.966085 -0.965766 0.259415 357.704 171.669)" fill="#005BC6"/>
<rect width="6.06392" height="1.51786" rx="0.75893" transform="matrix(0.865548 0.500826 -0.499175 0.866501 354.393 171.367)" fill="#005BC6"/>
<rect width="6.07184" height="1.51628" rx="0.75814" transform="matrix(-0.499071 0.866561 -0.865488 -0.500929 358.808 171.293)" fill="#005BC6"/>
<rect width="3.05856" height="3.05518" rx="1.09147" transform="matrix(-0.499076 0.866558 -0.865491 -0.500924 324.461 189.75)" fill="#FFD147"/>
<rect width="6.06117" height="1.51855" rx="0.759274" transform="matrix(0.965765 -0.259418 0.258221 0.966086 319.253 190.445)" fill="#FFD147"/>
<rect width="6.0743" height="1.51567" rx="0.757833" transform="matrix(0.258225 0.966085 -0.965766 0.259415 322.324 187.262)" fill="#FFD147"/>
<rect width="3.05394" height="3.0598" rx="1.09147" transform="matrix(-0.965766 0.259415 -0.258225 -0.966085 327.734 226.182)" fill="#005BC6"/>
<rect width="6.06393" height="1.51786" rx="0.75893" transform="matrix(0.865491 0.500924 -0.499076 0.866558 323.619 222.923)" fill="#005BC6"/>
<rect width="6.07184" height="1.51628" rx="0.75814" transform="matrix(-0.499071 0.866561 -0.865488 -0.500929 328.036 222.849)" fill="#005BC6"/>
<defs>
<filter id="filter0_d_270_107565" x="-7.62314" y="56.8584" width="356.642" height="347.277" filterUnits="userSpaceOnUse" color-interpolation-filters="sRGB">
<feFlood flood-opacity="0" result="BackgroundImageFix"/>
<feColorMatrix in="SourceAlpha" type="matrix" values="0 0 0 0 0 0 0 0 0 0 0 0 0 0 0 0 0 0 127 0" result="hardAlpha"/>
<feOffset dy="4.96386"/>
<feGaussianBlur stdDeviation="24.8193"/>
<feColorMatrix type="matrix" values="0 0 0 0 0 0 0 0 0 0 0 0 0 0 0 0 0 0 0.15 0"/>
<feBlend mode="normal" in2="BackgroundImageFix" result="effect1_dropShadow_270_107565"/>
<feBlend mode="normal" in="SourceGraphic" in2="effect1_dropShadow_270_107565" result="shape"/>
</filter>
<filter id="filter1_d_270_107565" x="76" y="275.355" width="190.967" height="114" filterUnits="userSpaceOnUse" color-interpolation-filters="sRGB">
<feFlood flood-opacity="0" result="BackgroundImageFix"/>
<feColorMatrix in="SourceAlpha" type="matrix" values="0 0 0 0 0 0 0 0 0 0 0 0 0 0 0 0 0 0 127 0" result="hardAlpha"/>
<feOffset dy="4"/>
<feGaussianBlur stdDeviation="12"/>
<feColorMatrix type="matrix" values="0 0 0 0 0 0 0 0 0 0 0 0 0 0 0 0 0 0 0.05 0"/>
<feBlend mode="normal" in2="BackgroundImageFix" result="effect1_dropShadow_270_107565"/>
<feBlend mode="normal" in="SourceGraphic" in2="effect1_dropShadow_270_107565" result="shape"/>
</filter>
<linearGradient id="paint0_linear_270_107565" x1="0.571975" y1="484.879" x2="5.42374" y2="-173.169" gradientUnits="userSpaceOnUse">
<stop stop-color="#E25D35"/>
<stop offset="0.260417" stop-color="#F56F46"/>
<stop offset="1" stop-color="#FFD147"/>
</linearGradient>
<linearGradient id="paint1_linear_270_107565" x1="22.1926" y1="259.667" x2="24.7637" y2="-189.06" gradientUnits="userSpaceOnUse">
<stop stop-color="#E25D35"/>
<stop offset="0.260417" stop-color="#F56F46"/>
<stop offset="1" stop-color="#FFD147"/>
</linearGradient>
<linearGradient id="paint2_linear_270_107565" x1="51.0697" y1="125.132" x2="54.9442" y2="-370.32" gradientUnits="userSpaceOnUse">
<stop stop-color="#E25D35"/>
<stop offset="0.260417" stop-color="#F56F46"/>
<stop offset="1" stop-color="#FFD147"/>
</linearGradient>
<clipPath id="clip0_270_107565">
<rect x="185.989" y="145.347" width="90.6431" height="72.2812" rx="3.91884" fill="white"/>
</clipPath>
<clipPath id="clip1_270_107565">
<rect x="67.7879" y="229.083" width="90.6431" height="72.2812" rx="3.91884" fill="white"/>
</clipPath>
</defs>
</svg>
