<svg width="1244" height="755" fill="none" xmlns="http://www.w3.org/2000/svg"><path fill-rule="evenodd" clip-rule="evenodd" d="M799.34-11.08C740.67 207.9 512.52 341.08 270 309.72v234.77c242.52-31.37 470.67 101.82 529.34 320.79A409.6 409.6 0 0 1 811.8 1007H2287.3V-152H811.86a409.6 409.6 0 0 1-12.52 140.92Z" fill="#2E3764"/><path fill-rule="evenodd" clip-rule="evenodd" d="M878.49-21.87C810.87 230.47 549.39 384.73 270 351.64v150.92c279.4-33.09 540.87 121.17 608.49 373.51A475.09 475.09 0 0 1 894.66 1007h1392.65V-152H894.68a475.07 475.07 0 0 1-16.2 130.13Z" fill="#005BC6"/><circle cx="590.5" cy="262.5" r="1.5" fill="#fff"/><circle cx="608.5" cy="470.5" r="1.5" fill="#fff"/><circle cx="683.5" cy="569.5" r="1.5" fill="#fff"/><circle cx="666.5" cy="372.5" r="1.5" fill="#fff"/><circle cx="586.5" cy="331.5" r="1.5" fill="#fff"/><circle cx="240.5" cy="425.5" r="1.5" fill="#fff"/><circle cx="351.5" cy="449.5" r="1.5" fill="#fff"/><circle cx="383.5" cy="479.5" r="1.5" fill="#fff"/><circle cx="347.5" cy="323.5" r=".5" fill="#fff"/><circle cx="381.5" cy="393.5" r=".5" fill="#fff"/><circle cx="493.5" cy="388.5" r=".5" fill="#fff"/><circle cx="668.5" cy="231.5" r=".5" fill="#fff"/><circle cx="631.5" cy="419.5" r=".5" fill="#fff"/><circle cx="721.5" cy="613.5" r=".5" fill="#fff"/><circle cx="690.5" cy="479.5" r=".5" fill="#fff"/><circle cx="686.5" cy="415.5" r=".5" fill="#fff"/><circle cx="681.5" cy="265.5" r=".5" fill="#fff"/><circle cx="349" cy="527" r="1" fill="#fff"/><g clip-path="url(#a)"><path fill-rule="evenodd" clip-rule="evenodd" d="M722.2 490.36c-41.86 0-75.8-34.16-75.8-76.3 0-42.15 33.94-76.32 75.8-76.32 41.87 0 75.8 34.17 75.8 76.31 0 42.15-33.93 76.31-75.8 76.31Z" fill="#FFD147"/><rect width="108.67" height="108.67" rx="4" transform="scale(.99662 1.00337) rotate(45 -91.99 924.47)" fill="#172153"/><path fill-rule="evenodd" clip-rule="evenodd" d="m659.14 371.68 39.25 39.52a4.03 4.03 0 0 1 0 5.68l-39.25 39.51a76.33 76.33 0 0 1-12.74-42.35c0-15.67 4.7-30.24 12.74-42.36Z" fill="#F56F46"/></g><path d="m267 662 21.22 36.75h-42.44L267 662Z" fill="#005BC6"/><path fill-rule="evenodd" clip-rule="evenodd" d="M632 308a19 19 0 1 1 0-38 19 19 0 0 1 0 38Z" fill="#F56F46"/><rect width="31.13" height="31.13" rx="4" transform="rotate(45.04 -176.84 224.54)" fill="#FFD147"/><g filter="url(#b)"><rect x="48" y="283" width="270" height="289.5" rx="16" fill="#fff"/><circle cx="183" cy="352.25" r="37.25" fill="#E6F9EF"/><path d="M172.72 340.52c1.81 0 3.32.37 4.53 1.12a7 7 0 0 1 2.72 3.12c.6 1.32.91 2.86.91 4.6 0 2.13-.27 4.01-.81 5.65a11.3 11.3 0 0 1-2.47 4.24 13.7 13.7 0 0 1-4.2 3.03c-1.7.8-3.71 1.45-6.04 1.93l-1.04-3.55c1.9-.48 3.5-1.06 4.8-1.76a9.3 9.3 0 0 0 3.07-2.54c.75-1 1.24-2.19 1.47-3.55v-1.72c.03-1.56-.03-2.86-.17-3.9a4.26 4.26 0 0 0-.85-2.3c-.43-.52-1.08-.77-1.95-.77-.9 0-1.63.34-2.16 1.02-.53.69-.8 1.75-.8 3.2 0 1.37.27 2.33.8 2.88.54.56 1.2.83 1.95.83.74 0 1.4-.16 2-.48.6-.32 1.2-.78 1.8-1.39l-.06 2.85c-.77.8-1.58 1.43-2.41 1.89-.82.45-1.79.67-2.9.67a5.9 5.9 0 0 1-3.16-.88 6.32 6.32 0 0 1-2.28-2.48 8 8 0 0 1-.83-3.74c0-1.6.35-3 1.06-4.2a7.48 7.48 0 0 1 2.9-2.78c1.22-.66 2.6-1 4.12-1Zm26.2.56-.56 3.61h-8.12v4.79c.55-.26 1.1-.44 1.69-.55a8.8 8.8 0 0 1 1.6-.16c1.14 0 2.18.3 3.12.87.94.57 1.7 1.4 2.25 2.48a8.2 8.2 0 0 1 .85 3.85 7.45 7.45 0 0 1-4.15 6.82c-1.3.67-2.82 1-4.56 1a9.12 9.12 0 0 1-7.36-3.31l2.92-2.65c.53.68 1.14 1.2 1.84 1.57.7.35 1.44.53 2.2.53 1.18 0 2.12-.36 2.82-1.08a3.79 3.79 0 0 0 1.07-2.8c0-.91-.13-1.65-.38-2.2-.25-.56-.6-.96-1.04-1.2a3.1 3.1 0 0 0-1.57-.39 5.7 5.7 0 0 0-2.72.74h-3.4v-11.92h13.5Z" fill="#41C45E"/><path d="M183 315a37.25 37.25 0 1 1-23.54 8.38" stroke="#41C45E" stroke-width="5" stroke-linecap="round"/><rect x="182.5" y="418.5" width="18" height="3" rx="1.5" fill="#D0D3D8"/><path fill="#FF8744" d="M168.5 413.5h8v8h-8z"/><rect x="138.5" y="418.5" width="18" height="3" rx="1.5" fill="#D0D3D8"/><path d="m129 413.5 4.76 8.25h-9.52l4.76-8.25Z" fill="#FF444F"/><rect x="224.5" y="418.5" width="18" height="3" rx="1.5" fill="#D0D3D8"/><circle cx="216.5" cy="417.5" r="4" fill="#41C45E"/><rect x="80" y="448.5" width="206" height="92" rx="8" fill="#F5F7FA"/><rect x="96" y="464.5" width="70" height="2" rx="1" fill="#172153"/><rect x="96" y="474.5" width="154" height="2" rx="1" fill="#D0D3D8"/><rect x="258" y="464.5" width="12" height="12" rx="6" fill="#41C45E"/><path d="m265.75 468.44-2.57 2.57-.94-.95c-.05-.04-.13-.04-.16 0l-.29.29c-.04.04-.04.11 0 .16l1.31 1.3c.05.05.12.05.17 0l2.93-2.93c.04-.04.04-.11 0-.16l-.29-.28c-.04-.05-.11-.05-.16 0Z" fill="#fff"/><rect x="96" y="488.5" width="44" height="2" rx="1" fill="#172153"/><rect x="96" y="498.5" width="147" height="2" rx="1" fill="#D0D3D8"/><rect x="258" y="488.5" width="12" height="12" rx="6" fill="#41C45E"/><path d="m265.75 492.44-2.57 2.57-.94-.95c-.05-.04-.13-.04-.16 0l-.29.29c-.04.04-.04.11 0 .16l1.31 1.3c.05.05.12.05.17 0l2.93-2.93c.04-.04.04-.11 0-.16l-.29-.28c-.04-.05-.11-.05-.16 0Z" fill="#fff"/><rect x="96" y="512.5" width="84" height="2" rx="1" fill="#172153"/><rect x="96" y="522.5" width="117" height="2" rx="1" fill="#D0D3D8"/><rect x="258" y="512.5" width="12" height="12" rx="6" fill="#41C45E"/><path d="m265.75 516.44-2.57 2.57-.94-.95c-.05-.03-.13-.03-.16 0l-.29.29c-.04.04-.04.12 0 .16l1.31 1.3c.05.05.12.05.17 0l2.93-2.93c.04-.04.04-.11 0-.16l-.29-.28c-.04-.05-.11-.05-.16 0Z" fill="#fff"/></g><g filter="url(#c)"><rect x="366" y="229" width="192" height="184.05" rx="16" fill="#fff"/><mask id="d" style="mask-type:alpha" maskUnits="userSpaceOnUse" x="398" y="261" width="128" height="64"><path fill="#C4C4C4" d="M398 261h128v64H398z"/></mask><g mask="url(#d)" fill-rule="evenodd" clip-rule="evenodd"><path d="M462 389a64 64 0 1 0 0-128 64 64 0 0 0 0 128Zm0-37a27 27 0 1 0 0-54 27 27 0 0 0 0 54Z" fill="#56CB70"/><path opacity=".2" d="M511.47 365.6A64 64 0 0 0 526 325h-37a27 27 0 1 1-7.9-19.1l26.15-26.15a64 64 0 1 0 4.22 85.85Z" fill="#fff"/><path d="M515.21 360.56A64 64 0 0 0 526 325h-37a27 27 0 1 1-27-27v-37a64 64 0 1 0 53.21 99.56Z" fill="#FFD147"/><path d="M518.44 355.17A64 64 0 0 0 526 325h-37a27 27 0 1 1-46.1-19.1l-26.15-26.15a64 64 0 1 0 101.7 75.42Z" fill="#F56F46"/></g><path d="M463.54 323.41c2.9-.78 33.22-15.11 33.22-15.11s-33.43 2.74-36.33 3.52l-.3.08a6 6 0 1 0 3.1 11.6c.1-.03-2.59.69.3-.09Z" fill="#172153"/><path d="M421.7 349.65h1.47v7.05h4.42v1.35h-5.9v-8.4Zm10.3 7.28c.29 0 .55-.05.79-.16a1.91 1.91 0 0 0 1-1.08c.08-.24.12-.5.12-.78v-.02c0-.28-.05-.54-.14-.8a1.94 1.94 0 0 0-2.6-1.07 1.8 1.8 0 0 0-.98 1.07c-.08.24-.13.5-.13.78v.02a2.17 2.17 0 0 0 .54 1.44c.18.18.38.33.61.44.24.1.5.16.78.16Zm-.03 1.26c-.48 0-.93-.08-1.35-.25a3.23 3.23 0 0 1-2.02-3.02v-.03a3.28 3.28 0 0 1 3.4-3.31 3.36 3.36 0 0 1 3.11 2.01c.17.4.25.82.25 1.28v.02a3.27 3.27 0 0 1-2.04 3.04c-.41.17-.86.26-1.35.26Zm8.79-2.8a4.16 4.16 0 0 0-1.45-.25c-.46 0-.82.09-1.07.27a.83.83 0 0 0-.39.72v.02c0 .3.12.54.35.7.24.16.53.24.88.24a2.16 2.16 0 0 0 1.2-.36 1.24 1.24 0 0 0 .48-.98v-.36Zm-.04 2.66v-.78a2.61 2.61 0 0 1-2.05.91 2.79 2.79 0 0 1-1.59-.5c-.2-.16-.36-.37-.49-.6a1.93 1.93 0 0 1-.18-.86v-.02c0-.35.07-.66.2-.91.12-.27.3-.48.52-.65.23-.18.5-.3.82-.39a5.55 5.55 0 0 1 2.78.13v-.11c0-.44-.13-.78-.4-1.01-.27-.23-.65-.35-1.16-.35-.36 0-.68.04-.96.1-.28.08-.56.18-.85.3l-.4-1.17a5.34 5.34 0 0 1 2.41-.53c.95 0 1.65.24 2.1.71.46.47.69 1.12.69 1.97v3.76h-1.44Zm6.13-1.13a1.75 1.75 0 0 0 1.28-.55c.17-.19.3-.4.4-.65.1-.25.16-.53.16-.83v-.02c0-.3-.06-.58-.16-.83a1.77 1.77 0 0 0-2.39-1.06c-.21.09-.4.22-.57.4-.17.17-.3.39-.4.65-.1.24-.14.52-.14.84v.02c0 .3.05.58.14.84a1.9 1.9 0 0 0 .97 1.04c.23.1.46.15.71.15Zm-.35 1.26a2.86 2.86 0 0 1-2.69-1.89c-.16-.4-.25-.87-.25-1.4v-.02c0-.53.08-1 .24-1.4.17-.42.4-.76.66-1.04a2.74 2.74 0 0 1 2.04-.85c.52 0 .95.11 1.3.33.34.23.63.49.86.78v-3.4h1.45v8.76h-1.45v-1.06c-.23.33-.52.6-.87.84-.35.23-.78.35-1.29.35Zm5.51-6.47h1.45v6.34h-1.45v-6.34Zm-.06-2.35h1.56v1.38h-1.56v-1.38Zm3.4 2.35h1.46v.98c.1-.15.22-.29.34-.42a2.18 2.18 0 0 1 1.64-.7c.72 0 1.28.23 1.67.67.4.44.59 1.03.59 1.77v4.04h-1.45v-3.6c0-.5-.13-.88-.37-1.14-.23-.28-.56-.41-1-.41-.42 0-.76.14-1.02.42-.27.27-.4.65-.4 1.15v3.58h-1.45v-6.34Zm10.4 4.6a1.87 1.87 0 0 0 1.3-.48 1.8 1.8 0 0 0 .55-1.25v-.03c0-.26-.05-.5-.16-.7-.1-.22-.22-.4-.4-.56a1.63 1.63 0 0 0-.6-.36 1.92 1.92 0 0 0-1.4 0c-.22.08-.42.2-.58.35a1.7 1.7 0 0 0-.39.55c-.08.21-.13.45-.13.71v.03a1.75 1.75 0 0 0 .53 1.27c.16.15.35.27.56.36.23.08.46.12.71.12Zm-.13 3.68c-1.06 0-2-.25-2.83-.76l.54-1.09c.34.21.69.37 1.06.5.36.11.76.17 1.2.17.64 0 1.14-.16 1.48-.49.35-.33.52-.81.52-1.45v-.5a3.4 3.4 0 0 1-.92.85 2.91 2.91 0 0 1-3.31-.46 2.9 2.9 0 0 1-.88-2.18v-.03c0-.46.08-.88.24-1.24a2.73 2.73 0 0 1 1.56-1.53 2.97 2.97 0 0 1 2.4.12c.35.21.65.46.9.76v-.95h1.45v5.04c0 1.06-.27 1.85-.8 2.39-.3.29-.66.5-1.1.63-.43.15-.93.22-1.5.22Zm11.05-8.98H474v-1.36h6.82V351h-2.66v7.04h-1.5V351Zm5.63.7h1.45v6.34h-1.45v-6.34Zm-.06-2.35h1.56v1.38h-1.56v-1.38Zm3.41 2.35h1.45v.96c.1-.14.22-.28.34-.4.12-.14.26-.25.4-.36.17-.1.34-.18.54-.24s.42-.1.66-.1a2.03 2.03 0 0 1 1.88 1.12c.26-.33.56-.6.9-.8.35-.2.77-.31 1.25-.31.7 0 1.24.21 1.63.63.4.42.59 1.02.59 1.8v4.04h-1.45v-3.6c0-.5-.12-.9-.34-1.16-.22-.26-.54-.4-.95-.4-.4 0-.73.14-.98.42-.25.26-.37.65-.37 1.16v3.58h-1.46v-3.62c0-.5-.1-.87-.33-1.14-.23-.26-.54-.4-.95-.4-.4 0-.74.15-.98.43a1.7 1.7 0 0 0-.38 1.16v3.57h-1.45v-6.34Zm15.75 2.72a2.4 2.4 0 0 0-.16-.64 1.59 1.59 0 0 0-.81-.9c-.19-.08-.4-.12-.64-.12-.45 0-.82.15-1.12.46-.28.3-.46.7-.52 1.2h3.25Zm-1.44 3.76a3.2 3.2 0 0 1-2.32-.91 3.19 3.19 0 0 1-.93-2.38v-.02c0-.46.07-.89.23-1.29a2.97 2.97 0 0 1 2.87-2.02c.5 0 .94.1 1.31.28.39.19.7.44.95.75.26.31.45.67.58 1.09a4.3 4.3 0 0 1 .17 1.7h-4.66c.08.52.28.92.61 1.2.34.28.74.41 1.21.41.36 0 .67-.06.94-.19.26-.13.52-.32.78-.56l.85.75a3.22 3.22 0 0 1-2.6 1.19Z" fill="#0C0F1F"/><path d="M444.62 376.93c.55 0 .98-.12 1.3-.36.3-.25.46-.55.46-.9v-.02c0-.2-.05-.37-.14-.52a1.2 1.2 0 0 0-.38-.4 1.6 1.6 0 0 0-.55-.26 2.44 2.44 0 0 0-1.39 0 1.4 1.4 0 0 0-.94.66c-.08.15-.13.32-.13.52v.02c0 .34.16.64.47.89.31.25.74.37 1.3.37Zm0-3.73c.43 0 .78-.12 1.06-.35.3-.23.44-.53.44-.89v-.02c0-.33-.14-.6-.41-.83a1.63 1.63 0 0 0-1.1-.35c-.45 0-.81.12-1.09.35-.27.22-.4.5-.4.82v.02c0 .37.14.67.42.9.28.23.64.35 1.08.35Zm0 4.97c-.46 0-.88-.06-1.28-.17-.39-.12-.73-.29-1.02-.5-.28-.2-.5-.45-.67-.75-.16-.3-.24-.62-.24-.98v-.03c0-.51.13-.93.4-1.26.26-.33.63-.59 1.11-.79a2.63 2.63 0 0 1-.88-.72c-.23-.3-.34-.68-.34-1.15v-.03c0-.32.07-.61.22-.88.15-.28.35-.52.6-.72.26-.21.57-.37.92-.48a3.7 3.7 0 0 1 1.18-.18 3.66 3.66 0 0 1 2.08.64 2.16 2.16 0 0 1 .83 1.62v.03c0 .47-.11.85-.35 1.15-.22.3-.51.54-.87.72.45.2.82.47 1.09.8.28.3.42.71.42 1.22v.02a2.16 2.16 0 0 1-.91 1.79c-.29.2-.63.37-1.02.48-.4.11-.82.17-1.27.17Zm8.13-1.31c.33 0 .62-.08.88-.23.26-.16.49-.37.67-.64.18-.27.32-.58.42-.94.1-.37.15-.76.15-1.18v-.02c0-.42-.05-.8-.15-1.17a3.3 3.3 0 0 0-.43-.96 2.11 2.11 0 0 0-.69-.65 1.66 1.66 0 0 0-.87-.24c-.33 0-.63.08-.9.24-.25.16-.47.37-.65.64-.19.26-.33.58-.43.95-.1.36-.15.75-.15 1.16v.03c0 .41.05.8.15 1.17.1.36.25.68.43.95.2.27.42.49.68.65.27.16.56.24.9.24Zm-.02 1.33a3.3 3.3 0 0 1-2.66-1.26c-.31-.4-.56-.85-.74-1.37a5.55 5.55 0 0 1-.25-1.69v-.02c0-.6.09-1.17.26-1.7.18-.52.43-.98.75-1.38.32-.39.7-.7 1.15-.92.45-.23.96-.35 1.51-.35a3.3 3.3 0 0 1 2.64 1.26c.32.4.57.85.75 1.38.17.52.26 1.08.26 1.68v.03c0 .6-.09 1.16-.26 1.69-.18.53-.43.99-.75 1.38a3.3 3.3 0 0 1-2.66 1.27Zm8.7-1.33c.33 0 .62-.08.88-.23.26-.16.49-.37.67-.64.19-.27.33-.58.42-.94.1-.37.16-.76.16-1.18v-.02c0-.42-.05-.8-.16-1.17a3.3 3.3 0 0 0-.43-.96 2.11 2.11 0 0 0-.68-.65 1.66 1.66 0 0 0-.88-.24c-.33 0-.62.08-.89.24-.25.16-.47.37-.66.64-.18.26-.33.58-.43.95-.1.36-.14.75-.14 1.16v.03c0 .41.04.8.14 1.17.1.36.25.68.43.95.2.27.42.49.69.65.26.16.56.24.88.24Zm-.02 1.33a3.3 3.3 0 0 1-2.65-1.26c-.32-.4-.57-.85-.75-1.37a5.55 5.55 0 0 1-.25-1.69v-.02c0-.6.09-1.17.27-1.7.17-.52.42-.98.74-1.38.32-.39.7-.7 1.15-.92.46-.23.96-.35 1.51-.35a3.3 3.3 0 0 1 2.64 1.26c.32.4.57.85.75 1.38.17.52.26 1.08.26 1.68v.03c0 .6-.09 1.16-.26 1.69-.18.53-.43.99-.75 1.38a3.3 3.3 0 0 1-2.66 1.27Zm5.26-6.48h1.46v.96c.1-.14.21-.28.33-.4a1.98 1.98 0 0 1 .94-.59c.2-.07.42-.1.66-.1a2.03 2.03 0 0 1 1.88 1.11c.26-.33.56-.6.9-.8.35-.2.77-.31 1.25-.31.7 0 1.24.21 1.63.63.4.42.59 1.02.59 1.8v4.04h-1.45v-3.6c0-.5-.11-.9-.34-1.16-.22-.26-.54-.4-.95-.4-.4 0-.72.14-.98.42-.25.26-.37.65-.37 1.16v3.58h-1.45v-3.62c0-.5-.12-.87-.34-1.14-.22-.26-.54-.4-.95-.4-.4 0-.73.15-.98.43a1.7 1.7 0 0 0-.37 1.16v3.57h-1.46v-6.34Zm13.58 6.46a4.32 4.32 0 0 1-2.69-.95l.65-.99c.34.26.69.46 1.04.6.36.12.7.18 1.03.18.32 0 .56-.06.72-.18a.6.6 0 0 0 .27-.5v-.02a.45.45 0 0 0-.12-.32.88.88 0 0 0-.31-.22 21.09 21.09 0 0 0-.98-.35 9.05 9.05 0 0 1-.72-.23c-.23-.09-.44-.2-.63-.34a1.81 1.81 0 0 1-.46-.52c-.12-.21-.18-.47-.18-.77v-.03c0-.3.06-.56.17-.8a1.9 1.9 0 0 1 1.2-1c.28-.08.58-.13.89-.13a4.34 4.34 0 0 1 2.33.72l-.58 1.03c-.3-.18-.61-.32-.92-.43-.32-.11-.6-.17-.87-.17-.28 0-.5.06-.66.18a.56.56 0 0 0-.23.46v.02c0 .12.04.22.12.3.08.08.19.16.32.23a6.56 6.56 0 0 0 1 .36l.69.25c.23.1.44.22.62.36a1.4 1.4 0 0 1 .65 1.24v.02a2 2 0 0 1-.18.88c-.12.25-.29.46-.5.62-.21.16-.46.29-.75.38-.29.08-.6.12-.92.12Z" fill="#56CB70"/></g><g filter="url(#e)"><rect x="415" y="461.05" width="222" height="229" rx="16" fill="#fff"/><rect x="471.5" y="493.05" width="109" height="109" rx="54.5" fill="#E6F9EF"/><path d="M485.35 547.55H498l4.23-12.89 6.1 25.77 5.63-20.04 4.69 7.16h48" stroke="#41C45E" stroke-width="5" stroke-linecap="round" stroke-linejoin="round"/><circle cx="550.13" cy="548.07" r="6.12" fill="#41C45E" stroke="#fff" stroke-width="4"/><path d="M481.66 635.19a4.26 4.26 0 0 1-3.06-1.25 4.35 4.35 0 0 1-1.22-3.07v-.02a4.25 4.25 0 0 1 4.33-4.34 5.21 5.21 0 0 1 1.93.36c.26.12.5.25.73.41.22.16.43.34.63.53l-.94 1.1c-.34-.32-.7-.57-1.07-.76-.38-.2-.8-.3-1.29-.3-.4 0-.77.09-1.11.25a2.79 2.79 0 0 0-1.45 1.57c-.14.36-.2.74-.2 1.15v.03c0 .4.06.8.2 1.16a2.93 2.93 0 0 0 1.45 1.6c.34.15.71.22 1.11.22.52 0 .96-.1 1.32-.28.37-.2.74-.47 1.1-.8l.94.95a5.54 5.54 0 0 1-1.44 1.1 4.87 4.87 0 0 1-1.97.4Zm7.82-1.26c.3 0 .56-.05.8-.16a1.91 1.91 0 0 0 1-1.08c.08-.24.12-.5.12-.78v-.02c0-.28-.04-.54-.14-.8a1.94 1.94 0 0 0-2.6-1.07 1.8 1.8 0 0 0-.98 1.07c-.08.24-.13.5-.13.78v.02a2.17 2.17 0 0 0 .54 1.44c.18.18.38.33.61.44.24.1.5.16.78.16Zm-.02 1.26c-.48 0-.93-.08-1.34-.25a3.23 3.23 0 0 1-2.02-3.02v-.03a3.28 3.28 0 0 1 3.38-3.31 3.36 3.36 0 0 1 3.12 2.01c.17.4.25.82.25 1.28v.02a3.27 3.27 0 0 1-2.04 3.04c-.41.17-.86.26-1.35.26Zm4.87-6.48h1.46v1.43c.2-.48.48-.87.85-1.15.37-.3.83-.42 1.39-.4v1.54h-.08c-.32 0-.62.05-.88.15-.26.1-.5.26-.68.47-.2.2-.34.47-.45.8-.1.3-.15.67-.15 1.08v2.42h-1.46v-6.34Zm9.3 2.72a2.4 2.4 0 0 0-.15-.64 1.59 1.59 0 0 0-.82-.9c-.18-.08-.4-.12-.63-.12-.45 0-.82.15-1.12.46-.29.3-.46.7-.53 1.2h3.25Zm-1.44 3.76a3.2 3.2 0 0 1-2.32-.91 3.19 3.19 0 0 1-.93-2.38v-.02c0-.46.08-.89.23-1.29.15-.4.37-.74.64-1.04a2.97 2.97 0 0 1 2.23-.97c.5 0 .94.09 1.32.27.38.19.7.44.95.75s.44.67.57 1.09a4.3 4.3 0 0 1 .17 1.7h-4.66c.09.52.29.92.62 1.2.33.28.74.41 1.2.41.37 0 .68-.06.94-.19.27-.13.53-.32.79-.56l.85.75a3.22 3.22 0 0 1-2.6 1.19Zm7.46-8.54h1.6l2 6.22 2.07-6.25h1.24l2.07 6.25 2-6.22h1.55l-2.93 8.46h-1.27l-2.07-6.04-2.06 6.04h-1.27l-2.93-8.46Zm18.22 4.78a2.4 2.4 0 0 0-.16-.64 1.59 1.59 0 0 0-.81-.9c-.19-.08-.4-.12-.64-.12-.45 0-.82.15-1.12.46-.28.3-.46.7-.52 1.2h3.25Zm-1.44 3.76a3.2 3.2 0 0 1-2.32-.91 3.19 3.19 0 0 1-.93-2.38v-.02c0-.46.07-.89.23-1.29a2.97 2.97 0 0 1 2.87-2.02c.5 0 .94.1 1.31.28.39.19.7.44.95.75.26.31.45.67.58 1.09a4.3 4.3 0 0 1 .16 1.7h-4.65c.08.52.28.92.61 1.2.34.28.74.41 1.21.41.36 0 .67-.06.94-.19.26-.13.52-.32.78-.56l.85.75a3.22 3.22 0 0 1-2.6 1.19Zm7.6-1.27c.25 0 .48-.05.7-.15.22-.1.41-.22.57-.4.17-.17.3-.38.4-.63.1-.25.14-.54.14-.85v-.02c0-.3-.05-.58-.14-.83-.1-.26-.23-.47-.4-.65a1.7 1.7 0 0 0-1.27-.55 1.78 1.78 0 0 0-1.3.56 2.07 2.07 0 0 0-.55 1.47v.02a2.07 2.07 0 0 0 .55 1.48 1.77 1.77 0 0 0 1.3.55Zm.34 1.26c-.52 0-.96-.11-1.3-.34a3.34 3.34 0 0 1-.85-.78v.99h-1.45v-8.76h1.45v3.48c.23-.34.52-.62.86-.84.35-.24.77-.35 1.29-.35a2.86 2.86 0 0 1 2.7 1.88c.16.41.25.88.25 1.4v.03c0 .53-.09 1-.25 1.4a2.97 2.97 0 0 1-1.61 1.67c-.35.15-.72.22-1.1.22Zm7.48-8.53h1.63l2.54 6.45 2.52-6.45h1.6l-3.5 8.46h-1.3l-3.49-8.46Zm9.64 2.06h1.45v6.34h-1.45v-6.34Zm-.06-2.35h1.56v1.38h-1.56v-1.38Zm5.53 8.8c-.26 0-.5-.04-.73-.1a1.54 1.54 0 0 1-.59-.31 1.42 1.42 0 0 1-.37-.57 2.6 2.6 0 0 1-.13-.89v-3.33h-.8v-1.25h.8v-1.74h1.45v1.74h1.7v1.25h-1.7v3.1c0 .29.07.49.2.62.14.12.33.18.58.18.31 0 .61-.07.9-.22v1.19a2.52 2.52 0 0 1-1.3.32Zm6.71-2.77a4.16 4.16 0 0 0-1.45-.25c-.46 0-.81.09-1.07.27a.83.83 0 0 0-.38.72v.02c0 .3.11.54.35.7.24.16.53.24.87.24a2.16 2.16 0 0 0 1.2-.36 1.24 1.24 0 0 0 .48-.98v-.36Zm-.03 2.66v-.78a2.61 2.61 0 0 1-2.05.91 2.79 2.79 0 0 1-1.59-.5c-.2-.16-.36-.37-.5-.6a1.93 1.93 0 0 1-.17-.86v-.02c0-.35.06-.66.19-.91.13-.27.3-.48.53-.65.23-.18.5-.3.81-.39a5.55 5.55 0 0 1 2.78.13v-.11c0-.44-.13-.78-.4-1.01-.26-.23-.65-.35-1.15-.35-.36 0-.68.04-.96.1-.28.08-.57.18-.85.3l-.4-1.17a5.34 5.34 0 0 1 2.41-.53c.95 0 1.65.24 2.1.71.46.47.69 1.12.69 1.97v3.76h-1.44Zm3.25-8.76h1.45v8.76h-1.45v-8.76Zm5.52 8.88a4.32 4.32 0 0 1-2.69-.95l.65-.99c.34.26.69.46 1.04.6.36.12.7.18 1.03.18.32 0 .56-.06.72-.18a.6.6 0 0 0 .27-.5v-.02a.45.45 0 0 0-.12-.32.88.88 0 0 0-.31-.22 21.09 21.09 0 0 0-.98-.35 9.05 9.05 0 0 1-.72-.23c-.23-.09-.44-.2-.63-.34a1.81 1.81 0 0 1-.46-.52c-.12-.21-.18-.47-.18-.77v-.03c0-.3.06-.56.17-.8a1.9 1.9 0 0 1 1.2-1c.28-.08.58-.13.89-.13a4.34 4.34 0 0 1 2.33.72l-.58 1.03c-.3-.18-.61-.32-.92-.43-.32-.11-.6-.17-.87-.17-.28 0-.5.06-.66.18a.56.56 0 0 0-.23.46v.02c0 .12.04.22.12.3.08.08.19.16.32.23a6.56 6.56 0 0 0 1 .36l.69.25c.23.1.44.22.62.36a1.4 1.4 0 0 1 .65 1.24v.02a2 2 0 0 1-.18.88c-.12.25-.29.46-.5.62-.21.16-.46.29-.75.38-.29.08-.6.12-.92.12Z" fill="#0C0F1F"/><path d="M447 654.05a4 4 0 0 1 4-4h123v8H451a4 4 0 0 1-4-4Z" fill="#41C45E"/><path fill="#FF8744" d="M576 650.05h17v8h-17z"/><path d="M595 650.05h6a4 4 0 0 1 0 8h-6v-8Z" fill="#FF444F"/></g><defs><filter id="b" x="0" y="239.96" width="366" height="385.5" filterUnits="userSpaceOnUse" color-interpolation-filters="sRGB"><feFlood flood-opacity="0" result="BackgroundImageFix"/><feColorMatrix in="SourceAlpha" values="0 0 0 0 0 0 0 0 0 0 0 0 0 0 0 0 0 0 127 0" result="hardAlpha"/><feOffset dy="4.96"/><feGaussianBlur stdDeviation="24"/><feColorMatrix values="0 0 0 0 0 0 0 0 0 0 0 0 0 0 0 0 0 0 0.15 0"/><feBlend in2="BackgroundImageFix" result="effect1_dropShadow_165_134005"/><feBlend in="SourceGraphic" in2="effect1_dropShadow_165_134005" result="shape"/></filter><filter id="c" x="318" y="185.96" width="288" height="280.05" filterUnits="userSpaceOnUse" color-interpolation-filters="sRGB"><feFlood flood-opacity="0" result="BackgroundImageFix"/><feColorMatrix in="SourceAlpha" values="0 0 0 0 0 0 0 0 0 0 0 0 0 0 0 0 0 0 127 0" result="hardAlpha"/><feOffset dy="4.96"/><feGaussianBlur stdDeviation="24"/><feColorMatrix values="0 0 0 0 0 0 0 0 0 0 0 0 0 0 0 0 0 0 0.15 0"/><feBlend in2="BackgroundImageFix" result="effect1_dropShadow_165_134005"/><feBlend in="SourceGraphic" in2="effect1_dropShadow_165_134005" result="shape"/></filter><filter id="e" x="367" y="418.01" width="318" height="325" filterUnits="userSpaceOnUse" color-interpolation-filters="sRGB"><feFlood flood-opacity="0" result="BackgroundImageFix"/><feColorMatrix in="SourceAlpha" values="0 0 0 0 0 0 0 0 0 0 0 0 0 0 0 0 0 0 127 0" result="hardAlpha"/><feOffset dy="4.96"/><feGaussianBlur stdDeviation="24"/><feColorMatrix values="0 0 0 0 0 0 0 0 0 0 0 0 0 0 0 0 0 0 0.15 0"/><feBlend in2="BackgroundImageFix" result="effect1_dropShadow_165_134005"/><feBlend in="SourceGraphic" in2="effect1_dropShadow_165_134005" result="shape"/></filter><clipPath id="a"><path fill="#fff" transform="translate(549 318)" d="M0 0h249v191H0z"/></clipPath></defs></svg>