<svg width="88" height="40" fill="none" xmlns="http://www.w3.org/2000/svg"><path fill-rule="evenodd" clip-rule="evenodd" d="M53.3 39l.1.9h-.6l-.6-.1a.8.8 0 01-.4-.5V35h-.6v-.7h.5v-1.4l.8-.6v2h.8v.7h-.8v3.9l.5.2h.3zm1.8.9V32h.8V35c.1-.3.4-.5.6-.6l.8-.2c.5 0 .8.2 1.1.5.3.3.5.9.5 1.7V40H58v-3.6c0-.5-.1-.8-.3-1a.9.9 0 00-.7-.4c-.3 0-.6.2-.9.5-.2.2-.3.7-.3 1.4v3H55zm9.2-1.8h.8c-.2.7-.4 1.1-.8 1.4a2 2 0 01-1.3.5 2 2 0 01-1.6-.7c-.4-.5-.6-1.3-.6-2.2 0-1 .2-1.7.6-2.2A2 2 0 0163 34c.6 0 1.1.3 1.5.8.4.5.6 1.2.6 2.2v.2h-3.5c0 .6.2 1.1.5 1.4.2.4.6.5 1 .5.5 0 1-.4 1.2-1.1zm-2.6-1.6h2.6c0-.5-.2-.8-.3-1a1.1 1.1 0 00-2-.2c-.2.3-.3.7-.3 1.2zM67 40v-5.6h.7v.7l.6-.6c.3-.2.5-.3.8-.3.4 0 .6.1.9.3.2.1.3.4.4.7.2-.3.4-.6.7-.7.2-.2.5-.3.8-.3.4 0 .8.2 1 .5.3.3.4.8.4 1.4V40h-.8v-3.6-.8l-.4-.4a.8.8 0 00-.4-.1 1 1 0 00-.8.4c-.2.2-.3.6-.3 1.2V40h-.8v-3.7l-.2-1a.7.7 0 00-.6-.2 1 1 0 00-.9.4c-.2.3-.3.8-.3 1.6v2.9h-.8zM78.8 38h.8c-.2.7-.4 1.1-.7 1.4a2 2 0 01-1.4.5 2 2 0 01-1.6-.7c-.4-.5-.6-1.3-.6-2.2 0-1 .2-1.7.6-2.2a2 2 0 011.6-.8c.6 0 1.1.3 1.5.8.4.5.6 1.2.6 2.2v.2h-3.5c0 .6.2 1.1.5 1.4.2.4.6.5 1 .5.5 0 1-.4 1.2-1.1zm-2.6-1.6h2.6c0-.5-.2-.8-.3-1a1.1 1.1 0 00-1.9-.2c-.3.3-.4.7-.4 1.2zm5.1 1.7l.8-.2c0 .4.2.7.4 1l.8.2c.3 0 .6 0 .8-.2.2-.2.3-.4.3-.7 0-.2-.1-.4-.3-.5a3 3 0 00-.8-.3l-1.2-.5-.5-.5-.2-.8c0-.4.2-.8.5-1.1.3-.3.7-.5 1.3-.5.3 0 .6 0 .9.2.3.1.5.3.6.5l.3.9-.8.1c0-.6-.4-.9-1-.9-.3 0-.6 0-.8.2l-.2.5c0 .2 0 .4.2.5l.9.4 1.3.5c.1 0 .3.2.4.5l.2.7c0 .5-.2 1-.6 1.3a2 2 0 01-1.4.5c-1 0-1.7-.6-1.9-1.8z" fill="#8C99A2"/><path fill-rule="evenodd" clip-rule="evenodd" d="M0 21.8c0-2.4.6-4.4 2-5.9a6 6 0 014.6-2.2c1.2 0 2.4.4 3.4 1 1.1.7 2 1.5 2.8 2.5.2.2.3.5.3.7v.1l-.2.6-.6.4a7.1 7.1 0 01-1.5.6l-.6.2a295.4 295.4 0 00-7.7 2.9l.1.7.5 1.3c.2.5.5 1 1 1.4.3.5.8 1 1.5 1.2a5 5 0 002.2.6 6 6 0 004.3-1.8c.3-.3.6-.5.8-.5.4 0 .6.2.6.5 0 .2 0 .4-.3.6A8.1 8.1 0 017 29.9c-.8 0-1.6-.1-2.3-.4-.8-.3-1.5-.7-2.2-1.3a6 6 0 01-1.8-2.6c-.4-1-.6-2.3-.6-3.8zm9.6-3.7c0-.3-.4-.8-1.2-1.4a4 4 0 00-2.6-1c-1 0-1.9.4-2.5 1.4-.6.9-1 2.1-1 3.7 0 .2.1.3.3.3a98.3 98.3 0 007-3zm11 10.6c0 .5-.2.7-.4.7h-.3a26.8 26.8 0 01-2-.2 30.4 30.4 0 00-4.3.2c-.4 0-.5-.2-.5-.6v-.1c0-.3 0-.5.2-.6l1.2-.2c.5 0 .7-.2.9-.4l.1-1V8.2 8v-.2-.1l-.2-.1-.1-.1a3.7 3.7 0 00-.5-.2A33.7 33.7 0 0013 6v-.2L14 5a92.6 92.6 0 003.6-1.7c.3 0 .5.2.5.7v22.8a3 3 0 000 .6l.1.2.2.1.1.1.3.1a4.7 4.7 0 001 .2c.5 0 .7.3.7.7zm-1.1-6.9c0-2.4.6-4.4 2-5.9a6 6 0 014.6-2.2c1.2 0 2.3.4 3.4 1 1.1.7 2 1.5 2.8 2.5.2.2.3.5.3.7v.1l-.2.6-.6.4a7.1 7.1 0 01-1.5.6l-.7.2a295.2 295.2 0 00-7.6 2.9l.1.7c0 .3.2.7.5 1.3.2.5.5 1 .9 1.4.4.5.9 1 1.6 1.2a5 5 0 002.2.6 6 6 0 004.3-1.8c.3-.3.6-.5.8-.5.4 0 .6.2.6.5 0 .2 0 .4-.3.6a8.1 8.1 0 01-6.3 3.2c-.8 0-1.6-.1-2.3-.4-.8-.3-1.5-.7-2.2-1.3a6 6 0 01-1.8-2.6c-.4-1-.6-2.3-.6-3.8zm9.9-3.7c0-.3-.4-.8-1.2-1.4a4 4 0 00-2.6-1c-1 0-1.9.4-2.5 1.4-.6.9-1 2.1-1 3.7 0 .2.1.3.2.3a98.4 98.4 0 007-3zm4 1.1c0-1.5.5-2.8 1.6-3.9a5.6 5.6 0 014.1-1.6c1 0 2 .2 3 .6l1.5.6c.8 0 1.4-.4 2-1.1.3-.6.6-.9 1-.9.2 0 .6.2.9.5.2.3.4.7.4 1 0 .4-.2.8-.6 1.1-.3.3-.7.6-1.2.8l-.8.3-.1.3v.3a5.6 5.6 0 01.4 2c0 1.6-.6 3-1.8 4.2a5.7 5.7 0 01-5.5 1.6 5 5 0 00-.8-.1c-.3 0-.7.2-1 .6-.4.4-.6.8-.6 1.2 0 .6.5 1 1.5 1.3 1 .2 2.3.3 4 .3 1.5 0 2.6.2 3.3.4 1 .3 1.9.9 2.4 1.6a4 4 0 01.5 4 5 5 0 01-3.5 2.9c-1 .3-2.2.5-3.6.5-2.6 0-4.4-.5-5.4-1.5s-1.6-2-1.6-3a3.3 3.3 0 01.2-1.4 4.8 4.8 0 01.6-.9 2.9 2.9 0 01.6-.5 6.2 6.2 0 00.4-.4l.1-.2-.3-.2-.7-.7a2 2 0 01-.3-1.2c0-1.2.7-2.3 2-3.4v-.1s0-.2-.3-.3a5.5 5.5 0 01-2.5-4.6zm5.8-4.4c-.9 0-1.7.4-2.2 1.2-.6.7-1 1.6-1 2.8 0 1.4.4 2.6 1.1 3.6.7 1 1.6 1.5 2.7 1.5 1 0 1.7-.4 2.3-1.1.6-.8.9-1.7.9-2.9 0-1.3-.4-2.5-1-3.5-.8-1-1.7-1.6-2.8-1.6zm-3.7 17.6c0 1 .5 1.9 1.7 2.6 1 .6 2.5 1 4.1 1 1.7 0 2.9-.3 3.6-.9.6-.5 1-1 1-1.8 0-1-.5-1.7-1.4-2.1a5 5 0 00-1.8-.5l-2.7-.2c-1.2 0-2.2 0-3.1-.2h-.1c-.2 0-.4.1-.6.4-.5.4-.7 1-.7 1.7zm11.8-15.6c0-.7.6-1.4 1.7-2.1a7 7 0 015.2-1l1.6.5c.6.3 1 .7 1.5 1.3.4.5.7 1.2.7 2l.1 1.4v7c0 .5.1.8.3 1 .1.3.3.5.5.6h.4c.4 0 .6 0 .8-.3l.4-.6.4-.3c.2 0 .3.2.3.5 0 .6-.2 1.2-.7 1.8-.6.7-1.2 1-2 1h-1L57 29a10.7 10.7 0 01-.9-.8v-.1h-.2l-.3.3-.6.4c-1 .7-2.2 1-3.3 1a4 4 0 01-4.1-4c0-1.4.5-2.4 1.5-3.2l1.3-.8 1.7-.5a35.7 35.7 0 012.8-.4h.5c.2-.1.3-.3.3-.6v-1.3c0-1.2-.3-2.2-.9-2.8-.6-.7-1.3-1-2-1-1.3 0-2.4.8-3.2 2.4-.2.3-.4.4-.7.4-.4 0-.7-.1-1-.3-.3-.3-.5-.6-.5-1zM52.4 28c.5 0 1-.2 1.5-.4a3.9 3.9 0 001.5-1.1l.2-.8v-2.4-.8c0-.2-.2-.2-.4-.2-.5 0-1.3 0-2.1.2-1 .2-1.6.6-2.1 1-.6.5-.9 1.2-.9 2 0 1 .3 1.6.8 2 .3.3.8.5 1.5.5zm13.3-12.3v.1h.1l.3-.2a8.6 8.6 0 011.6-1.2 6.3 6.3 0 013-.7h.1a5.6 5.6 0 013 .8c.6.4 1 1 1.4 1.6.4.8.6 1.7.7 2.7v2.5a187.2 187.2 0 010 5.6v.4l.1.2.1.2.2.1.3.1h.2a4.3 4.3 0 01.9.2c.3 0 .5.2.5.6 0 .5-.2.7-.6.7h-.5a19.3 19.3 0 00-5.3 0h-.1c-.4 0-.5-.2-.5-.7 0-.2 0-.4.2-.5l1.1-.2.5-.1c.3 0 .4-.1.5-.2l.1-.7v-5.5c0-1.8-.1-3.1-.5-4-.3-.7-.8-1.3-1.5-1.6-.7-.3-1.4-.5-2-.5-1 0-1.8.3-2.5.9-.7.5-1.1 1-1.2 1.4v9.1c0 .6.2 1 .7 1l1.7.4.3.6c0 .5-.2.7-.5.7h-.2a26.8 26.8 0 01-2.1-.3 28.9 28.9 0 00-4.2.2c-.4 0-.6-.2-.6-.6 0-.3.1-.5.3-.6l1.1-.3c.4 0 .7-.2.8-.4l.2-.8V18c0-.4 0-.7-.2-.8L61.8 16l-.3-.4.3-.3a31.6 31.6 0 013.5-1.9c.3 0 .4.2.4.5V15.6zM77 16c-.4 0-.7-.2-.7-.5l.5-.6a19.4 19.4 0 003.3-4c.2-.4.4-.6.7-.6.3 0 .4.2.4.6a106 106 0 010 2.5c0 .5.2.7.7.7H85.4c.7 0 1 .3 1 .7 0 .5-.1.8-.4 1 0 .2-.3.2-.6.2h-4.2c-.2 0-.3.2-.3.4a552 552 0 01-.1 8.4c0 1.8.6 2.7 1.8 2.7.5 0 1-.2 1.6-.6l1.4-1c.4-.4.7-.6 1-.6.1 0 .3 0 .4.2l.2.5-.2.6c-2 2.1-3.6 3.2-5 3.2-1 0-1.7-.4-2.4-1-.7-.7-1.1-1.8-1.3-3.4v-1.1a288.9 288.9 0 01.1-8c0-.2 0-.3-.2-.3H77z" fill="#20292F"/><path fill-rule="evenodd" clip-rule="evenodd" d="M69.3 11.7l-2.5-2a42 42 0 013-3.2 45.2 45.2 0 01-4.1-1l1-3a25 25 0 013.8 2c-.3-1.9-.4-3.4-.4-4.5h3l-.5 4.5 1.4-.7 2.7-1.1 1 3-4.3.8 2 2.3.9 1-2.5 1.8-2.2-3.8a75 75 0 01-2.3 3.9z" fill="#F92C8B"/></svg>