<svg width="400" height="400" viewBox="0 0 400 400" fill="none" xmlns="http://www.w3.org/2000/svg">
<g clip-path="url(#clip0_270_107564)">
<mask id="mask0_270_107564" style="mask-type:alpha" maskUnits="userSpaceOnUse" x="35" y="19" width="331" height="331">
<circle cx="200.5" cy="184.5" r="165.5" fill="#F56F46"/>
</mask>
<g mask="url(#mask0_270_107564)">
<circle cx="200.5" cy="184.5" r="165.5" fill="#F56F46"/>
<path fill-rule="evenodd" clip-rule="evenodd" d="M317.393 -87.5922C297.656 -87.5922 279.153 -99.0797 270.107 -117.131L254.482 -152.004H99.4675L83.8426 -117.131C74.7967 -99.0797 56.2936 -87.5922 36.5569 -87.5922H28.3333L94.5333 415.802C97.8227 425.238 103.99 425.238 107.691 415.802L173.48 254.978L230.634 415.392C233.923 424.828 240.091 424.828 243.792 415.392L320.271 -87.182L317.393 -87.5922Z" fill="url(#paint0_linear_270_107564)"/>
<path fill-rule="evenodd" clip-rule="evenodd" d="M248.306 -165.951H106.038L84.2455 -117.13C76.8443 -102.36 62.453 -91.6932 46.8281 -88.8214L96.9921 221.749C100.282 227.492 106.449 227.492 110.15 221.749L174.294 124.516L233.093 221.338C236.793 227.082 242.55 227.082 246.25 221.338L302.993 -89.6419C289.013 -93.7445 276.678 -103.591 270.099 -117.13L248.306 -165.951Z" fill="url(#paint1_linear_270_107564)"/>
<path fill-rule="evenodd" clip-rule="evenodd" d="M270.109 -117.131L176.772 -325.135L83.8449 -117.131C80.5555 -110.977 76.4437 -105.643 71.5095 -101.13L110.16 105.233C112.216 108.104 117.562 108.925 121.262 105.233L173.071 36.7184L224.88 104.822C228.169 108.925 233.926 108.104 235.982 104.822L278.744 -104.002C275.455 -108.105 272.577 -112.208 270.109 -117.131Z" fill="url(#paint2_linear_270_107564)"/>
<rect x="59.8569" y="112.363" width="277.318" height="242.039" rx="16" fill="white"/>
<path d="M261.857 112.363H311.529C320.49 112.363 324.971 112.363 328.393 114.107C331.404 115.64 333.851 118.088 335.385 121.099C337.129 124.521 337.129 129.002 337.129 137.963V314.026C337.129 327.467 337.129 334.188 334.513 339.322C332.212 343.838 328.541 347.509 324.025 349.81C318.891 352.426 312.171 352.426 298.729 352.426H261.857V112.363Z" fill="#F5F7FA"/>
<rect x="272.987" y="161.101" width="54.5615" height="23.8024" rx="4" fill="white"/>
<rect x="278.632" y="166.201" width="18.1872" height="3.40034" rx="1.70017" fill="#DADADA"/>
<rect opacity="0.8" x="278.632" y="174.135" width="42.0186" height="1.70017" rx="0.850084" fill="#E5EAF0"/>
<rect opacity="0.8" x="278.632" y="178.102" width="30.103" height="1.70018" rx="0.85009" fill="#E5EAF0"/>
<rect x="272.987" y="189.437" width="54.5615" height="23.8024" rx="4" fill="white"/>
<rect x="278.632" y="194.537" width="18.1872" height="3.40033" rx="1.70016" fill="#DADADA"/>
<rect opacity="0.8" x="278.632" y="202.472" width="42.0186" height="1.70017" rx="0.850086" fill="#E5EAF0"/>
<rect opacity="0.8" x="278.632" y="206.439" width="30.103" height="1.70016" rx="0.850082" fill="#E5EAF0"/>
<rect x="272.987" y="252.91" width="54.5615" height="23.8024" rx="4" fill="#172153"/>
<rect x="291.174" y="258.01" width="18.7555" height="3.40034" rx="1.70017" fill="white"/>
<rect opacity="0.3" x="279.239" y="265.944" width="42.0187" height="1.70013" rx="0.850067" fill="white"/>
<rect opacity="0.3" x="285.49" y="269.911" width="30.1029" height="1.70018" rx="0.85009" fill="white"/>
<g clip-path="url(#clip1_270_107564)">
<path d="M294.87 130.563C294.87 128.532 296.522 126.885 298.553 126.885V126.885C300.591 126.885 302.247 128.536 302.247 130.574V134.241H298.548C296.517 134.241 294.87 132.595 294.87 130.563V130.563Z" fill="#F56F46"/>
<path d="M299.214 130.563C299.214 128.532 300.866 126.885 302.898 126.885V126.885C304.935 126.885 306.592 128.536 306.592 130.574V134.241H302.893C300.861 134.241 299.214 132.595 299.214 130.563V130.563Z" fill="#172153"/>
<path fill-rule="evenodd" clip-rule="evenodd" d="M300.727 127.592C299.811 128.261 299.214 129.343 299.214 130.563C299.214 132.374 300.524 133.88 302.247 134.185V130.574C302.247 129.349 301.648 128.263 300.727 127.592Z" fill="#FFD147"/>
</g>
<path d="M291.322 145.799H292.301V143.459H294.958V145.799H295.937V140.245H294.958V142.554H292.301V140.245H291.322V145.799Z" fill="#0C0F1F"/>
<path d="M299.181 145.894C299.953 145.894 300.502 145.585 300.9 145.109L300.335 144.609C300.001 144.934 299.667 145.109 299.197 145.109C298.577 145.109 298.091 144.728 297.988 144.046H301.075C301.083 143.951 301.091 143.863 301.091 143.776C301.091 142.57 300.415 141.523 299.078 141.523C297.877 141.523 297.025 142.507 297.025 143.705V143.72C297.025 145.014 297.964 145.894 299.181 145.894ZM297.98 143.411C298.067 142.76 298.481 142.308 299.07 142.308C299.707 142.308 300.073 142.792 300.136 143.411H297.98Z" fill="#0C0F1F"/>
<path d="M302.114 145.799H303.076V140.007H302.114V145.799Z" fill="#0C0F1F"/>
<path d="M304.335 147.069H305.297V145.149C305.592 145.537 306.03 145.887 306.722 145.887C307.724 145.887 308.679 145.101 308.679 143.713V143.697C308.679 142.308 307.716 141.523 306.722 141.523C306.045 141.523 305.608 141.872 305.297 142.308V141.61H304.335V147.069ZM306.499 145.053C305.847 145.053 305.274 144.522 305.274 143.713V143.697C305.274 142.895 305.847 142.356 306.499 142.356C307.151 142.356 307.7 142.887 307.7 143.697V143.713C307.7 144.538 307.159 145.053 306.499 145.053Z" fill="#0C0F1F"/>
<rect x="113.782" y="159.807" width="5.25184" height="5.23393" rx="1.5" stroke="#454F59"/>
<path d="M127.932 164.424H126.849L126.856 163.624H127.932C128.201 163.624 128.428 163.564 128.612 163.443C128.797 163.32 128.936 163.141 129.029 162.907C129.125 162.672 129.173 162.388 129.173 162.056V161.813C129.173 161.558 129.146 161.333 129.091 161.14C129.038 160.946 128.96 160.783 128.855 160.651C128.75 160.519 128.621 160.42 128.469 160.353C128.316 160.285 128.141 160.251 127.942 160.251H126.828V159.448H127.942C128.275 159.448 128.579 159.505 128.855 159.619C129.133 159.73 129.373 159.891 129.576 160.101C129.779 160.31 129.935 160.561 130.044 160.853C130.156 161.142 130.212 161.464 130.212 161.82V162.056C130.212 162.409 130.156 162.731 130.044 163.023C129.935 163.315 129.779 163.565 129.576 163.775C129.376 163.982 129.135 164.143 128.855 164.257C128.577 164.368 128.269 164.424 127.932 164.424ZM127.43 159.448V164.424H126.404V159.448H127.43ZM132.598 164.493C132.311 164.493 132.053 164.447 131.825 164.356C131.597 164.263 131.404 164.134 131.244 163.97C131.087 163.806 130.966 163.615 130.882 163.399C130.798 163.18 130.755 162.948 130.755 162.702V162.565C130.755 162.285 130.795 162.028 130.875 161.796C130.955 161.563 131.069 161.362 131.217 161.191C131.367 161.02 131.55 160.889 131.764 160.798C131.978 160.704 132.219 160.658 132.488 160.658C132.75 160.658 132.983 160.701 133.186 160.788C133.388 160.874 133.558 160.997 133.695 161.157C133.834 161.316 133.939 161.508 134.009 161.731C134.08 161.952 134.115 162.198 134.115 162.469V162.879H131.176V162.223H133.148V162.148C133.148 162.011 133.123 161.889 133.073 161.782C133.025 161.673 132.952 161.586 132.854 161.522C132.756 161.459 132.631 161.427 132.478 161.427C132.348 161.427 132.237 161.455 132.143 161.512C132.05 161.569 131.973 161.649 131.914 161.751C131.857 161.854 131.814 161.975 131.784 162.114C131.757 162.25 131.743 162.401 131.743 162.565V162.702C131.743 162.85 131.764 162.986 131.805 163.112C131.848 163.237 131.908 163.345 131.986 163.436C132.066 163.528 132.161 163.598 132.273 163.648C132.387 163.699 132.516 163.724 132.659 163.724C132.837 163.724 133.002 163.689 133.155 163.621C133.31 163.55 133.443 163.444 133.555 163.303L134.033 163.823C133.956 163.934 133.85 164.041 133.715 164.144C133.583 164.247 133.424 164.331 133.237 164.397C133.05 164.461 132.837 164.493 132.598 164.493ZM135.715 159.174V164.424H134.727V159.174H135.715ZM138.524 163.59V161.943C138.524 161.824 138.505 161.723 138.466 161.639C138.428 161.552 138.367 161.485 138.285 161.437C138.205 161.389 138.102 161.365 137.974 161.365C137.865 161.365 137.77 161.385 137.69 161.423C137.611 161.46 137.549 161.513 137.506 161.584C137.463 161.652 137.441 161.733 137.441 161.827H136.457C136.457 161.669 136.493 161.52 136.566 161.379C136.639 161.238 136.745 161.113 136.884 161.006C137.023 160.897 137.188 160.811 137.379 160.75C137.573 160.688 137.79 160.658 138.029 160.658C138.316 160.658 138.571 160.706 138.794 160.801C139.018 160.897 139.193 161.04 139.321 161.232C139.451 161.423 139.516 161.663 139.516 161.95V163.532C139.516 163.735 139.528 163.901 139.553 164.031C139.578 164.159 139.615 164.27 139.663 164.366V164.424H138.668C138.62 164.324 138.584 164.199 138.559 164.048C138.536 163.896 138.524 163.743 138.524 163.59ZM138.654 162.172L138.661 162.729H138.111C137.981 162.729 137.868 162.744 137.773 162.773C137.677 162.803 137.598 162.845 137.537 162.9C137.475 162.952 137.43 163.014 137.4 163.084C137.373 163.155 137.359 163.233 137.359 163.317C137.359 163.401 137.378 163.478 137.417 163.546C137.456 163.612 137.512 163.664 137.585 163.703C137.657 163.74 137.743 163.758 137.841 163.758C137.989 163.758 138.118 163.728 138.227 163.669C138.336 163.61 138.421 163.537 138.48 163.45C138.542 163.364 138.573 163.282 138.576 163.204L138.836 163.621C138.799 163.714 138.749 163.811 138.685 163.912C138.624 164.012 138.545 164.106 138.449 164.195C138.354 164.282 138.239 164.354 138.104 164.411C137.97 164.465 137.81 164.493 137.626 164.493C137.391 164.493 137.178 164.446 136.986 164.353C136.797 164.257 136.647 164.126 136.535 163.959C136.426 163.791 136.371 163.599 136.371 163.385C136.371 163.192 136.408 163.02 136.481 162.869C136.553 162.719 136.661 162.592 136.802 162.49C136.945 162.385 137.124 162.306 137.338 162.254C137.553 162.199 137.801 162.172 138.084 162.172H138.654ZM141.317 164.007L142.298 160.726H143.354L141.867 164.981C141.835 165.075 141.792 165.175 141.737 165.282C141.685 165.389 141.613 165.491 141.522 165.586C141.433 165.684 141.32 165.764 141.184 165.826C141.049 165.887 140.884 165.918 140.688 165.918C140.595 165.918 140.518 165.912 140.459 165.901C140.4 165.889 140.329 165.874 140.247 165.853V165.132C140.272 165.132 140.298 165.132 140.326 165.132C140.353 165.134 140.379 165.135 140.404 165.135C140.534 165.135 140.64 165.12 140.722 165.091C140.804 165.061 140.87 165.016 140.92 164.954C140.971 164.895 141.01 164.817 141.04 164.722L141.317 164.007ZM140.907 160.726L141.71 163.406L141.85 164.448L141.18 164.52L139.851 160.726H140.907ZM147.565 162.896V159.448H148.587V162.896C148.587 163.229 148.514 163.515 148.368 163.754C148.222 163.991 148.023 164.174 147.77 164.301C147.519 164.429 147.237 164.493 146.922 164.493C146.597 164.493 146.308 164.438 146.058 164.329C145.807 164.219 145.61 164.052 145.466 163.826C145.323 163.598 145.251 163.31 145.251 162.961H146.28C146.28 163.144 146.305 163.288 146.355 163.395C146.407 163.503 146.482 163.579 146.577 163.624C146.673 163.67 146.788 163.693 146.922 163.693C147.052 163.693 147.165 163.662 147.261 163.601C147.357 163.539 147.431 163.449 147.483 163.331C147.538 163.212 147.565 163.067 147.565 162.896ZM151.397 163.59V161.943C151.397 161.824 151.377 161.723 151.338 161.639C151.3 161.552 151.239 161.485 151.157 161.437C151.078 161.389 150.974 161.365 150.846 161.365C150.737 161.365 150.642 161.385 150.563 161.423C150.483 161.46 150.421 161.513 150.378 161.584C150.335 161.652 150.313 161.733 150.313 161.827H149.329C149.329 161.669 149.365 161.52 149.438 161.379C149.511 161.238 149.617 161.113 149.756 161.006C149.895 160.897 150.06 160.811 150.252 160.75C150.445 160.688 150.662 160.658 150.901 160.658C151.188 160.658 151.443 160.706 151.667 160.801C151.89 160.897 152.065 161.04 152.193 161.232C152.323 161.423 152.388 161.663 152.388 161.95V163.532C152.388 163.735 152.4 163.901 152.425 164.031C152.45 164.159 152.487 164.27 152.535 164.366V164.424H151.54C151.492 164.324 151.456 164.199 151.431 164.048C151.408 163.896 151.397 163.743 151.397 163.59ZM151.526 162.172L151.533 162.729H150.983C150.853 162.729 150.74 162.744 150.645 162.773C150.549 162.803 150.47 162.845 150.409 162.9C150.347 162.952 150.302 163.014 150.272 163.084C150.245 163.155 150.231 163.233 150.231 163.317C150.231 163.401 150.25 163.478 150.289 163.546C150.328 163.612 150.384 163.664 150.457 163.703C150.53 163.74 150.615 163.758 150.713 163.758C150.861 163.758 150.99 163.728 151.099 163.669C151.209 163.61 151.293 163.537 151.352 163.45C151.414 163.364 151.446 163.282 151.448 163.204L151.708 163.621C151.671 163.714 151.621 163.811 151.557 163.912C151.496 164.012 151.417 164.106 151.321 164.195C151.226 164.282 151.111 164.354 150.976 164.411C150.842 164.465 150.682 164.493 150.498 164.493C150.263 164.493 150.05 164.446 149.858 164.353C149.669 164.257 149.519 164.126 149.407 163.959C149.298 163.791 149.243 163.599 149.243 163.385C149.243 163.192 149.28 163.02 149.353 162.869C149.426 162.719 149.533 162.592 149.674 162.49C149.817 162.385 149.996 162.306 150.211 162.254C150.425 162.199 150.673 162.172 150.956 162.172H151.526ZM154.35 163.707L155.17 160.726H156.199L154.951 164.424H154.329L154.35 163.707ZM153.786 160.726L154.609 163.71L154.627 164.424H154.001L152.753 160.726H153.786ZM158.581 163.59V161.943C158.581 161.824 158.562 161.723 158.523 161.639C158.484 161.552 158.424 161.485 158.342 161.437C158.262 161.389 158.158 161.365 158.031 161.365C157.921 161.365 157.827 161.385 157.747 161.423C157.667 161.46 157.606 161.513 157.563 161.584C157.519 161.652 157.498 161.733 157.498 161.827H156.513C156.513 161.669 156.55 161.52 156.623 161.379C156.696 161.238 156.801 161.113 156.94 161.006C157.079 160.897 157.245 160.811 157.436 160.75C157.63 160.688 157.846 160.658 158.086 160.658C158.373 160.658 158.628 160.706 158.851 160.801C159.074 160.897 159.25 161.04 159.378 161.232C159.507 161.423 159.572 161.663 159.572 161.95V163.532C159.572 163.735 159.585 163.901 159.61 164.031C159.635 164.159 159.671 164.27 159.719 164.366V164.424H158.725C158.677 164.324 158.64 164.199 158.615 164.048C158.593 163.896 158.581 163.743 158.581 163.59ZM158.711 162.172L158.718 162.729H158.168C158.038 162.729 157.925 162.744 157.829 162.773C157.733 162.803 157.655 162.845 157.593 162.9C157.532 162.952 157.486 163.014 157.457 163.084C157.429 163.155 157.416 163.233 157.416 163.317C157.416 163.401 157.435 163.478 157.474 163.546C157.512 163.612 157.568 163.664 157.641 163.703C157.714 163.74 157.8 163.758 157.898 163.758C158.046 163.758 158.174 163.728 158.284 163.669C158.393 163.61 158.477 163.537 158.537 163.45C158.598 163.364 158.63 163.282 158.632 163.204L158.892 163.621C158.856 163.714 158.806 163.811 158.742 163.912C158.68 164.012 158.602 164.106 158.506 164.195C158.41 164.282 158.295 164.354 158.161 164.411C158.026 164.465 157.867 164.493 157.682 164.493C157.447 164.493 157.234 164.446 157.043 164.353C156.854 164.257 156.704 164.126 156.592 163.959C156.482 163.791 156.428 163.599 156.428 163.385C156.428 163.192 156.464 163.02 156.537 162.869C156.61 162.719 156.717 162.592 156.858 162.49C157.002 162.385 157.181 162.306 157.395 162.254C157.609 162.199 157.858 162.172 158.14 162.172H158.711ZM162.983 163.122C162.983 163.033 162.97 162.953 162.942 162.883C162.917 162.81 162.87 162.744 162.799 162.685C162.728 162.623 162.629 162.563 162.502 162.503C162.374 162.444 162.209 162.383 162.006 162.319C161.78 162.246 161.566 162.164 161.363 162.073C161.163 161.982 160.985 161.876 160.83 161.755C160.677 161.632 160.557 161.489 160.468 161.328C160.381 161.166 160.338 160.978 160.338 160.764C160.338 160.556 160.384 160.368 160.475 160.2C160.566 160.029 160.693 159.883 160.857 159.762C161.022 159.639 161.215 159.545 161.439 159.478C161.664 159.412 161.911 159.379 162.18 159.379C162.547 159.379 162.867 159.445 163.141 159.578C163.414 159.71 163.626 159.891 163.776 160.121C163.929 160.351 164.005 160.614 164.005 160.911H162.987C162.987 160.765 162.956 160.637 162.895 160.528C162.835 160.416 162.744 160.328 162.621 160.265C162.5 160.201 162.348 160.169 162.163 160.169C161.985 160.169 161.837 160.196 161.719 160.251C161.6 160.303 161.511 160.375 161.452 160.466C161.393 160.555 161.363 160.655 161.363 160.767C161.363 160.851 161.384 160.928 161.425 160.996C161.468 161.064 161.532 161.128 161.616 161.187C161.701 161.247 161.804 161.303 161.927 161.355C162.05 161.407 162.193 161.459 162.355 161.509C162.626 161.591 162.864 161.683 163.069 161.786C163.276 161.888 163.449 162.003 163.588 162.131C163.727 162.258 163.832 162.403 163.903 162.565C163.974 162.727 164.009 162.91 164.009 163.115C164.009 163.332 163.967 163.525 163.882 163.696C163.798 163.867 163.676 164.012 163.517 164.13C163.357 164.249 163.167 164.339 162.946 164.4C162.725 164.462 162.478 164.493 162.204 164.493C161.958 164.493 161.715 164.461 161.476 164.397C161.237 164.331 161.019 164.232 160.823 164.1C160.63 163.967 160.475 163.799 160.358 163.594C160.242 163.389 160.184 163.146 160.184 162.866H161.213C161.213 163.021 161.237 163.152 161.285 163.259C161.333 163.366 161.4 163.452 161.486 163.519C161.575 163.585 161.68 163.632 161.801 163.662C161.924 163.692 162.058 163.707 162.204 163.707C162.382 163.707 162.528 163.681 162.642 163.631C162.758 163.581 162.843 163.512 162.898 163.423C162.955 163.334 162.983 163.234 162.983 163.122ZM166.172 163.724C166.293 163.724 166.4 163.701 166.494 163.655C166.587 163.607 166.66 163.541 166.712 163.457C166.767 163.37 166.796 163.269 166.798 163.153H167.724C167.722 163.413 167.652 163.644 167.516 163.847C167.379 164.047 167.196 164.206 166.965 164.322C166.735 164.436 166.478 164.493 166.193 164.493C165.906 164.493 165.655 164.445 165.441 164.349C165.229 164.253 165.052 164.121 164.911 163.953C164.77 163.782 164.664 163.583 164.593 163.358C164.523 163.13 164.487 162.886 164.487 162.626V162.527C164.487 162.265 164.523 162.021 164.593 161.796C164.664 161.568 164.77 161.37 164.911 161.201C165.052 161.03 165.229 160.897 165.441 160.801C165.653 160.706 165.901 160.658 166.186 160.658C166.489 160.658 166.755 160.716 166.982 160.832C167.213 160.948 167.393 161.115 167.523 161.331C167.655 161.545 167.722 161.799 167.724 162.093H166.798C166.796 161.97 166.769 161.859 166.719 161.758C166.671 161.658 166.601 161.578 166.507 161.519C166.416 161.457 166.303 161.427 166.169 161.427C166.025 161.427 165.908 161.457 165.817 161.519C165.726 161.578 165.655 161.66 165.605 161.765C165.555 161.868 165.52 161.985 165.499 162.117C165.481 162.247 165.472 162.384 165.472 162.527V162.626C165.472 162.77 165.481 162.908 165.499 163.04C165.517 163.172 165.551 163.29 165.602 163.392C165.654 163.495 165.726 163.575 165.817 163.635C165.908 163.694 166.027 163.724 166.172 163.724ZM169.279 161.533V164.424H168.295V160.726H169.221L169.279 161.533ZM170.394 160.702L170.377 161.615C170.329 161.608 170.271 161.602 170.202 161.598C170.136 161.591 170.076 161.587 170.021 161.587C169.882 161.587 169.761 161.606 169.659 161.642C169.558 161.676 169.474 161.728 169.406 161.796C169.34 161.864 169.29 161.947 169.255 162.045C169.224 162.143 169.205 162.255 169.201 162.38L169.003 162.319C169.003 162.08 169.026 161.86 169.074 161.659C169.122 161.456 169.192 161.28 169.283 161.129C169.376 160.979 169.49 160.863 169.625 160.781C169.759 160.699 169.913 160.658 170.086 160.658C170.141 160.658 170.197 160.662 170.253 160.671C170.31 160.678 170.357 160.688 170.394 160.702ZM171.898 160.726V164.424H170.91V160.726H171.898ZM170.848 159.762C170.848 159.619 170.898 159.5 170.999 159.407C171.099 159.313 171.233 159.267 171.402 159.267C171.568 159.267 171.702 159.313 171.802 159.407C171.904 159.5 171.956 159.619 171.956 159.762C171.956 159.906 171.904 160.024 171.802 160.118C171.702 160.211 171.568 160.258 171.402 160.258C171.233 160.258 171.099 160.211 170.999 160.118C170.898 160.024 170.848 159.906 170.848 159.762ZM173.695 161.437V165.846H172.711V160.726H173.624L173.695 161.437ZM176.037 162.534V162.606C176.037 162.875 176.005 163.124 175.941 163.354C175.879 163.585 175.788 163.785 175.668 163.956C175.547 164.125 175.396 164.257 175.216 164.353C175.039 164.446 174.834 164.493 174.601 164.493C174.376 164.493 174.18 164.447 174.013 164.356C173.847 164.265 173.707 164.137 173.593 163.973C173.481 163.807 173.391 163.614 173.323 163.395C173.254 163.177 173.202 162.942 173.166 162.691V162.503C173.202 162.235 173.254 161.988 173.323 161.765C173.391 161.54 173.481 161.345 173.593 161.181C173.707 161.014 173.846 160.886 174.01 160.794C174.176 160.703 174.371 160.658 174.594 160.658C174.829 160.658 175.035 160.702 175.213 160.791C175.393 160.88 175.543 161.007 175.664 161.174C175.787 161.34 175.879 161.538 175.941 161.769C176.005 161.999 176.037 162.254 176.037 162.534ZM175.049 162.606V162.534C175.049 162.377 175.035 162.232 175.008 162.1C174.983 161.966 174.942 161.848 174.885 161.748C174.83 161.648 174.757 161.57 174.666 161.516C174.577 161.459 174.469 161.43 174.341 161.43C174.207 161.43 174.092 161.452 173.996 161.495C173.903 161.538 173.826 161.601 173.767 161.683C173.708 161.765 173.663 161.863 173.634 161.977C173.604 162.091 173.586 162.22 173.579 162.363V162.838C173.591 163.007 173.622 163.158 173.675 163.293C173.727 163.425 173.808 163.53 173.918 163.607C174.027 163.685 174.17 163.724 174.348 163.724C174.478 163.724 174.587 163.695 174.676 163.638C174.765 163.579 174.837 163.498 174.892 163.395C174.949 163.293 174.989 163.174 175.011 163.04C175.036 162.906 175.049 162.761 175.049 162.606ZM178.46 160.726V161.423H176.307V160.726H178.46ZM176.84 159.813H177.824V163.31C177.824 163.417 177.838 163.499 177.865 163.556C177.895 163.613 177.938 163.653 177.995 163.676C178.052 163.696 178.124 163.707 178.211 163.707C178.272 163.707 178.327 163.704 178.375 163.7C178.425 163.693 178.467 163.686 178.501 163.679L178.504 164.404C178.42 164.431 178.329 164.453 178.231 164.469C178.133 164.485 178.025 164.493 177.906 164.493C177.69 164.493 177.501 164.457 177.339 164.387C177.179 164.314 177.056 164.198 176.97 164.038C176.883 163.879 176.84 163.669 176.84 163.409V159.813ZM182.466 164.493C182.179 164.493 181.921 164.447 181.693 164.356C181.466 164.263 181.272 164.134 181.112 163.97C180.955 163.806 180.834 163.615 180.75 163.399C180.666 163.18 180.624 162.948 180.624 162.702V162.565C180.624 162.285 180.663 162.028 180.743 161.796C180.823 161.563 180.937 161.362 181.085 161.191C181.235 161.02 181.418 160.889 181.632 160.798C181.846 160.704 182.088 160.658 182.357 160.658C182.619 160.658 182.851 160.701 183.054 160.788C183.257 160.874 183.426 160.997 183.563 161.157C183.702 161.316 183.807 161.508 183.878 161.731C183.948 161.952 183.983 162.198 183.983 162.469V162.879H181.044V162.223H183.016V162.148C183.016 162.011 182.991 161.889 182.941 161.782C182.893 161.673 182.82 161.586 182.722 161.522C182.624 161.459 182.499 161.427 182.346 161.427C182.216 161.427 182.105 161.455 182.011 161.512C181.918 161.569 181.842 161.649 181.782 161.751C181.725 161.854 181.682 161.975 181.652 162.114C181.625 162.25 181.611 162.401 181.611 162.565V162.702C181.611 162.85 181.632 162.986 181.673 163.112C181.716 163.237 181.777 163.345 181.854 163.436C181.934 163.528 182.03 163.598 182.141 163.648C182.255 163.699 182.384 163.724 182.527 163.724C182.705 163.724 182.87 163.689 183.023 163.621C183.178 163.55 183.311 163.444 183.423 163.303L183.901 163.823C183.824 163.934 183.718 164.041 183.584 164.144C183.451 164.247 183.292 164.331 183.105 164.397C182.918 164.461 182.705 164.493 182.466 164.493ZM185.337 160.726L185.949 161.851L186.578 160.726H187.627L186.581 162.534L187.675 164.424H186.622L185.956 163.235L185.289 164.424H184.236L185.33 162.534L184.284 160.726H185.337ZM189.739 164.493C189.452 164.493 189.195 164.447 188.967 164.356C188.739 164.263 188.545 164.134 188.386 163.97C188.229 163.806 188.108 163.615 188.023 163.399C187.939 163.18 187.897 162.948 187.897 162.702V162.565C187.897 162.285 187.937 162.028 188.017 161.796C188.096 161.563 188.21 161.362 188.358 161.191C188.509 161.02 188.691 160.889 188.905 160.798C189.12 160.704 189.361 160.658 189.63 160.658C189.892 160.658 190.124 160.701 190.327 160.788C190.53 160.874 190.7 160.997 190.836 161.157C190.975 161.316 191.08 161.508 191.151 161.731C191.222 161.952 191.257 162.198 191.257 162.469V162.879H188.317V162.223H190.29V162.148C190.29 162.011 190.265 161.889 190.214 161.782C190.167 161.673 190.094 161.586 189.996 161.522C189.898 161.459 189.772 161.427 189.62 161.427C189.49 161.427 189.378 161.455 189.285 161.512C189.191 161.569 189.115 161.649 189.056 161.751C188.999 161.854 188.955 161.975 188.926 162.114C188.898 162.25 188.885 162.401 188.885 162.565V162.702C188.885 162.85 188.905 162.986 188.946 163.112C188.99 163.237 189.05 163.345 189.128 163.436C189.207 163.528 189.303 163.598 189.415 163.648C189.529 163.699 189.657 163.724 189.801 163.724C189.979 163.724 190.144 163.689 190.296 163.621C190.451 163.55 190.585 163.444 190.696 163.303L191.175 163.823C191.097 163.934 190.991 164.041 190.857 164.144C190.725 164.247 190.565 164.331 190.378 164.397C190.192 164.461 189.979 164.493 189.739 164.493ZM193.345 163.724C193.466 163.724 193.573 163.701 193.667 163.655C193.76 163.607 193.833 163.541 193.885 163.457C193.94 163.37 193.968 163.269 193.971 163.153H194.897C194.895 163.413 194.825 163.644 194.689 163.847C194.552 164.047 194.368 164.206 194.138 164.322C193.908 164.436 193.651 164.493 193.366 164.493C193.079 164.493 192.828 164.445 192.614 164.349C192.402 164.253 192.225 164.121 192.084 163.953C191.943 163.782 191.837 163.583 191.766 163.358C191.696 163.13 191.66 162.886 191.66 162.626V162.527C191.66 162.265 191.696 162.021 191.766 161.796C191.837 161.568 191.943 161.37 192.084 161.201C192.225 161.03 192.402 160.897 192.614 160.801C192.826 160.706 193.074 160.658 193.359 160.658C193.662 160.658 193.927 160.716 194.155 160.832C194.385 160.948 194.565 161.115 194.695 161.331C194.828 161.545 194.895 161.799 194.897 162.093H193.971C193.968 161.97 193.942 161.859 193.892 161.758C193.844 161.658 193.774 161.578 193.68 161.519C193.589 161.457 193.476 161.427 193.342 161.427C193.198 161.427 193.081 161.457 192.99 161.519C192.899 161.578 192.828 161.66 192.778 161.765C192.728 161.868 192.692 161.985 192.672 162.117C192.654 162.247 192.645 162.384 192.645 162.527V162.626C192.645 162.77 192.654 162.908 192.672 163.04C192.69 163.172 192.724 163.29 192.774 163.392C192.827 163.495 192.899 163.575 192.99 163.635C193.081 163.694 193.199 163.724 193.345 163.724ZM197.655 163.539V160.726H198.64V164.424H197.713L197.655 163.539ZM197.765 162.78L198.055 162.773C198.055 163.02 198.027 163.249 197.97 163.46C197.913 163.67 197.827 163.852 197.713 164.007C197.6 164.16 197.456 164.28 197.283 164.366C197.11 164.45 196.906 164.493 196.671 164.493C196.491 164.493 196.325 164.468 196.172 164.417C196.022 164.365 195.892 164.284 195.782 164.175C195.675 164.063 195.591 163.921 195.529 163.748C195.47 163.572 195.44 163.361 195.44 163.115V160.726H196.425V163.122C196.425 163.231 196.437 163.324 196.462 163.399C196.49 163.474 196.527 163.536 196.575 163.583C196.623 163.631 196.679 163.665 196.743 163.686C196.809 163.707 196.882 163.717 196.961 163.717C197.164 163.717 197.324 163.676 197.44 163.594C197.558 163.512 197.642 163.4 197.69 163.259C197.74 163.115 197.765 162.956 197.765 162.78ZM201.203 160.726V161.423H199.05V160.726H201.203ZM199.583 159.813H200.567V163.31C200.567 163.417 200.581 163.499 200.608 163.556C200.638 163.613 200.681 163.653 200.738 163.676C200.795 163.696 200.867 163.707 200.954 163.707C201.015 163.707 201.07 163.704 201.118 163.7C201.168 163.693 201.21 163.686 201.244 163.679L201.248 164.404C201.163 164.431 201.072 164.453 200.974 164.469C200.876 164.485 200.768 164.493 200.649 164.493C200.433 164.493 200.244 164.457 200.082 164.387C199.923 164.314 199.8 164.198 199.713 164.038C199.626 163.879 199.583 163.669 199.583 163.409V159.813ZM202.803 160.726V164.424H201.815V160.726H202.803ZM201.753 159.762C201.753 159.619 201.804 159.5 201.904 159.407C202.004 159.313 202.139 159.267 202.307 159.267C202.474 159.267 202.607 159.313 202.707 159.407C202.81 159.5 202.861 159.619 202.861 159.762C202.861 159.906 202.81 160.024 202.707 160.118C202.607 160.211 202.474 160.258 202.307 160.258C202.139 160.258 202.004 160.211 201.904 160.118C201.804 160.024 201.753 159.906 201.753 159.762ZM203.459 162.613V162.541C203.459 162.27 203.498 162.02 203.575 161.792C203.653 161.562 203.766 161.363 203.914 161.194C204.062 161.026 204.244 160.895 204.461 160.801C204.677 160.706 204.925 160.658 205.206 160.658C205.486 160.658 205.735 160.706 205.954 160.801C206.173 160.895 206.356 161.026 206.504 161.194C206.655 161.363 206.769 161.562 206.846 161.792C206.924 162.02 206.962 162.27 206.962 162.541V162.613C206.962 162.882 206.924 163.131 206.846 163.361C206.769 163.589 206.655 163.789 206.504 163.959C206.356 164.128 206.174 164.259 205.958 164.353C205.741 164.446 205.493 164.493 205.212 164.493C204.932 164.493 204.683 164.446 204.464 164.353C204.247 164.259 204.064 164.128 203.914 163.959C203.766 163.789 203.653 163.589 203.575 163.361C203.498 163.131 203.459 162.882 203.459 162.613ZM204.443 162.541V162.613C204.443 162.768 204.457 162.912 204.484 163.047C204.512 163.181 204.555 163.3 204.614 163.402C204.676 163.503 204.756 163.581 204.854 163.638C204.952 163.695 205.071 163.724 205.212 163.724C205.349 163.724 205.467 163.695 205.565 163.638C205.662 163.581 205.741 163.503 205.8 163.402C205.86 163.3 205.903 163.181 205.93 163.047C205.96 162.912 205.975 162.768 205.975 162.613V162.541C205.975 162.391 205.96 162.249 205.93 162.117C205.903 161.983 205.858 161.864 205.797 161.762C205.738 161.657 205.659 161.575 205.561 161.516C205.463 161.456 205.345 161.427 205.206 161.427C205.067 161.427 204.948 161.456 204.85 161.516C204.754 161.575 204.676 161.657 204.614 161.762C204.555 161.864 204.512 161.983 204.484 162.117C204.457 162.249 204.443 162.391 204.443 162.541ZM208.531 161.516V164.424H207.547V160.726H208.47L208.531 161.516ZM208.388 162.445H208.121C208.121 162.172 208.156 161.926 208.227 161.707C208.298 161.486 208.397 161.298 208.524 161.143C208.652 160.986 208.804 160.866 208.979 160.784C209.157 160.7 209.355 160.658 209.574 160.658C209.747 160.658 209.905 160.683 210.049 160.733C210.192 160.783 210.315 160.863 210.418 160.972C210.523 161.082 210.603 161.226 210.657 161.406C210.714 161.586 210.743 161.806 210.743 162.066V164.424H209.752V162.062C209.752 161.898 209.729 161.771 209.683 161.68C209.638 161.589 209.57 161.525 209.482 161.488C209.395 161.45 209.288 161.43 209.16 161.43C209.028 161.43 208.913 161.456 208.815 161.509C208.719 161.561 208.64 161.634 208.576 161.728C208.514 161.819 208.468 161.926 208.436 162.049C208.404 162.172 208.388 162.304 208.388 162.445Z" fill="#454F59"/>
<rect x="113.282" y="172.424" width="6.25184" height="6.23398" rx="2" fill="#DADADA"/>
<rect x="124.649" y="174.124" width="39.7845" height="3.40036" rx="1.70018" fill="#DADADA"/>
<line x1="112.713" y1="150.114" x2="243.434" y2="150.114" stroke="#ECECEC"/>
<path d="M118.073 136.309H116.958V140.655C116.958 141.747 116.344 142.348 115.495 142.348C114.677 142.348 114.063 141.92 113.981 141.094H112.866C112.979 142.532 114.012 143.369 115.424 143.369C117.04 143.369 118.073 142.42 118.073 140.686V136.309Z" fill="#282828"/>
<path d="M123.148 138.452V138.829C122.739 138.513 122.217 138.329 121.603 138.329C120.253 138.329 119.168 139.451 119.168 140.849C119.168 142.246 120.253 143.369 121.603 143.369C122.217 143.369 122.739 143.185 123.148 142.869V143.246H124.202V138.452H123.148ZM121.757 142.41C120.877 142.41 120.232 141.706 120.232 140.849C120.232 139.992 120.877 139.288 121.757 139.288C122.289 139.288 122.79 139.472 123.148 139.982V141.716C122.79 142.226 122.289 142.41 121.757 142.41Z" fill="#282828"/>
<path d="M129.373 138.452L127.798 141.889L126.212 138.452H125.087L127.327 143.246H128.258L130.498 138.452H129.373Z" fill="#282828"/>
<path d="M134.807 138.452V138.829C134.398 138.513 133.876 138.329 133.262 138.329C131.912 138.329 130.827 139.451 130.827 140.849C130.827 142.246 131.912 143.369 133.262 143.369C133.876 143.369 134.398 143.185 134.807 142.869V143.246H135.861V138.452H134.807ZM133.415 142.41C132.536 142.41 131.891 141.706 131.891 140.849C131.891 139.992 132.536 139.288 133.415 139.288C133.947 139.288 134.449 139.472 134.807 139.982V141.716C134.449 142.226 133.947 142.41 133.415 142.41Z" fill="#282828"/>
<path d="M140.007 136.187C138.462 136.187 137.439 137.003 137.439 138.268C137.439 139.288 138.042 139.951 139.342 140.196L140.559 140.431C141.378 140.573 141.654 140.951 141.654 141.369C141.654 142.012 141.091 142.389 140.181 142.389C139.076 142.389 138.38 141.869 138.247 140.992H137.152C137.285 142.481 138.421 143.369 140.119 143.369C141.715 143.369 142.779 142.532 142.779 141.237C142.779 140.165 142.032 139.615 140.733 139.36L139.761 139.166C139.014 139.023 138.605 138.737 138.605 138.186C138.605 137.513 139.188 137.136 140.078 137.136C141.091 137.136 141.592 137.585 141.715 138.319H142.8C142.636 136.717 141.285 136.187 140.007 136.187Z" fill="#282828"/>
<path d="M146.322 142.41C145.432 142.41 144.849 141.716 144.849 140.849C144.849 139.982 145.432 139.288 146.322 139.288C146.967 139.288 147.447 139.655 147.58 140.196H148.665C148.491 139.094 147.529 138.329 146.322 138.329C144.88 138.329 143.785 139.431 143.785 140.849C143.785 142.277 144.88 143.369 146.322 143.369C147.529 143.369 148.491 142.603 148.665 141.502H147.58C147.447 142.042 146.967 142.41 146.322 142.41Z" fill="#282828"/>
<path d="M150.869 139.104V138.452H149.805V143.246H150.869V140.227C151.298 139.666 151.881 139.38 152.649 139.349V138.35C151.912 138.35 151.309 138.625 150.869 139.104Z" fill="#282828"/>
<path d="M154.346 137.34C154.715 137.34 155.021 137.064 155.021 136.687C155.021 136.309 154.715 136.034 154.346 136.034C153.968 136.034 153.671 136.309 153.671 136.687C153.671 137.064 153.968 137.34 154.346 137.34ZM153.825 138.452V143.246H154.878V138.452H153.825Z" fill="#282828"/>
<path d="M159.097 138.339C158.483 138.339 157.961 138.523 157.562 138.829V138.452H156.498V145.613H157.562V142.869C157.961 143.175 158.483 143.358 159.097 143.358C160.447 143.358 161.542 142.246 161.542 140.849C161.542 139.451 160.447 138.339 159.097 138.339ZM158.943 142.44C158.411 142.44 157.92 142.236 157.562 141.726V139.972C157.92 139.462 158.411 139.258 158.943 139.258C159.833 139.258 160.478 139.992 160.478 140.849C160.478 141.706 159.833 142.44 158.943 142.44Z" fill="#282828"/>
<path d="M166.036 142.206C165.791 142.308 165.504 142.389 165.218 142.389C164.624 142.389 164.277 142.093 164.277 141.4V139.339H166.057V138.452H164.277V136.687H163.213V138.452H162.077V139.339H163.213V141.4C163.213 142.634 163.867 143.369 165.095 143.369C165.422 143.369 165.77 143.328 166.19 143.175L166.036 142.206Z" fill="#282828"/>
<path d="M175.008 137.319V136.309H170.088V143.246H171.193V140.502H174.558V139.492H171.193V137.319H175.008Z" fill="#282828"/>
<path d="M176.705 137.34C177.073 137.34 177.38 137.064 177.38 136.687C177.38 136.309 177.073 136.034 176.705 136.034C176.327 136.034 176.03 136.309 176.03 136.687C176.03 137.064 176.327 137.34 176.705 137.34ZM176.183 138.452V143.246H177.237V138.452H176.183Z" fill="#282828"/>
<path d="M178.857 136.003V143.246H179.921V136.003H178.857Z" fill="#282828"/>
<path d="M183.595 138.329C182.132 138.329 181.119 139.431 181.119 140.849C181.119 142.277 182.143 143.369 183.657 143.369C184.7 143.369 185.549 142.858 185.856 141.991H184.69C184.495 142.297 184.137 142.44 183.667 142.44C182.767 142.44 182.306 141.889 182.204 141.165H185.979C186.183 139.543 185.191 138.329 183.595 138.329ZM183.605 139.227C184.352 139.227 184.864 139.645 184.925 140.431H182.224C182.347 139.757 182.807 139.227 183.605 139.227Z" fill="#282828"/>
<path d="M187.814 141.665L186.832 141.655C186.955 142.92 187.927 143.369 189.062 143.369C190.269 143.369 191.159 142.848 191.159 141.838C191.159 140.91 190.443 140.594 189.717 140.461L188.817 140.318C188.254 140.227 188.07 139.982 188.07 139.727C188.07 139.39 188.407 139.166 189.021 139.166C189.635 139.166 190.095 139.37 190.147 139.89H191.129C191.026 138.635 189.952 138.319 189.021 138.319C187.824 138.319 187.016 138.89 187.016 139.819C187.016 140.686 187.701 141.053 188.438 141.175L189.502 141.359C189.911 141.43 190.147 141.634 190.147 141.92C190.147 142.297 189.717 142.501 189.093 142.501C188.366 142.501 187.927 142.257 187.814 141.665Z" fill="#282828"/>
<line x1="112.713" y1="222.934" x2="243.434" y2="222.934" stroke="#ECECEC"/>
<path d="M117.495 215.169C116.073 215.169 114.999 214.087 114.999 212.598C114.999 211.098 116.073 210.027 117.495 210.027C118.651 210.027 119.449 210.68 119.726 211.751H120.861C120.534 210.088 119.235 209.007 117.495 209.007C115.49 209.007 113.884 210.517 113.884 212.598C113.884 214.669 115.49 216.199 117.495 216.199C119.235 216.199 120.534 215.097 120.861 213.434H119.726C119.449 214.516 118.651 215.169 117.495 215.169Z" fill="#282828"/>
<path d="M124.72 209.007C123.175 209.007 122.152 209.823 122.152 211.088C122.152 212.108 122.755 212.771 124.055 213.016L125.272 213.251C126.09 213.394 126.367 213.771 126.367 214.189C126.367 214.832 125.804 215.209 124.894 215.209C123.789 215.209 123.093 214.689 122.96 213.812H121.865C121.998 215.301 123.134 216.189 124.832 216.189C126.428 216.189 127.492 215.352 127.492 214.057C127.492 212.986 126.745 212.435 125.446 212.18L124.474 211.986C123.727 211.843 123.318 211.557 123.318 211.007C123.318 210.333 123.901 209.956 124.791 209.956C125.804 209.956 126.305 210.405 126.428 211.139H127.513C127.349 209.538 125.998 209.007 124.72 209.007Z" fill="#282828"/>
<path d="M131.293 209.007C129.749 209.007 128.726 209.823 128.726 211.088C128.726 212.108 129.329 212.771 130.628 213.016L131.846 213.251C132.664 213.394 132.94 213.771 132.94 214.189C132.94 214.832 132.378 215.209 131.467 215.209C130.362 215.209 129.667 214.689 129.534 213.812H128.439C128.572 215.301 129.708 216.189 131.406 216.189C133.002 216.189 134.066 215.352 134.066 214.057C134.066 212.986 133.319 212.435 132.02 212.18L131.048 211.986C130.301 211.843 129.892 211.557 129.892 211.007C129.892 210.333 130.475 209.956 131.365 209.956C132.378 209.956 132.879 210.405 133.002 211.139H134.086C133.923 209.538 132.572 209.007 131.293 209.007Z" fill="#282828"/>
<path d="M143.157 210.139V209.13H138.236V216.066H139.341V213.322H142.707V212.312H139.341V210.139H143.157Z" fill="#282828"/>
<path d="M144.854 210.16C145.222 210.16 145.529 209.884 145.529 209.507C145.529 209.13 145.222 208.854 144.854 208.854C144.475 208.854 144.179 209.13 144.179 209.507C144.179 209.884 144.475 210.16 144.854 210.16ZM144.332 211.272V216.066H145.386V211.272H144.332Z" fill="#282828"/>
<path d="M147.006 208.823V216.066H148.07V208.823H147.006Z" fill="#282828"/>
<path d="M151.744 211.149C150.281 211.149 149.268 212.251 149.268 213.669C149.268 215.097 150.291 216.189 151.805 216.189C152.849 216.189 153.698 215.679 154.005 214.811H152.839C152.644 215.118 152.286 215.26 151.816 215.26C150.915 215.26 150.455 214.709 150.353 213.985H154.128C154.332 212.363 153.34 211.149 151.744 211.149ZM151.754 212.047C152.501 212.047 153.012 212.465 153.074 213.251H150.373C150.496 212.577 150.956 212.047 151.754 212.047Z" fill="#282828"/>
<path d="M155.963 214.485L154.981 214.475C155.103 215.74 156.075 216.189 157.211 216.189C158.418 216.189 159.308 215.668 159.308 214.658C159.308 213.73 158.592 213.414 157.866 213.281L156.965 213.139C156.403 213.047 156.218 212.802 156.218 212.547C156.218 212.21 156.556 211.986 157.17 211.986C157.784 211.986 158.244 212.19 158.295 212.71H159.277C159.175 211.455 158.101 211.139 157.17 211.139C155.973 211.139 155.165 211.71 155.165 212.639C155.165 213.506 155.85 213.873 156.587 213.995L157.651 214.179C158.06 214.25 158.295 214.454 158.295 214.74C158.295 215.118 157.866 215.322 157.242 215.322C156.515 215.322 156.075 215.077 155.963 214.485Z" fill="#282828"/>
<rect x="113.782" y="232.184" width="5.25185" height="5.23396" rx="1.5" stroke="#454F59"/>
<path d="M117.829 233.838L115.945 235.717V235.717C115.844 235.817 115.681 235.817 115.58 235.717C115.58 235.717 115.58 235.717 115.58 235.717L114.987 235.126" stroke="#454F59" stroke-linecap="round" stroke-linejoin="round"/>
<path d="M126.333 231.824H128.189C128.57 231.824 128.897 231.881 129.17 231.995C129.446 232.109 129.658 232.278 129.806 232.501C129.954 232.724 130.028 232.999 130.028 233.325C130.028 233.592 129.983 233.821 129.891 234.012C129.802 234.201 129.676 234.359 129.512 234.487C129.35 234.612 129.16 234.713 128.941 234.788L128.616 234.959H127.003L126.996 234.159H128.196C128.376 234.159 128.525 234.127 128.644 234.063C128.762 233.999 128.851 233.911 128.91 233.797C128.972 233.683 129.003 233.551 129.003 233.4C129.003 233.241 128.973 233.103 128.914 232.987C128.855 232.87 128.765 232.781 128.644 232.72C128.523 232.658 128.372 232.628 128.189 232.628H127.359V236.801H126.333V231.824ZM129.115 236.801L127.981 234.583L129.064 234.576L130.213 236.753V236.801H129.115ZM132.458 236.869C132.171 236.869 131.914 236.824 131.686 236.733C131.458 236.639 131.264 236.51 131.105 236.346C130.948 236.182 130.827 235.992 130.742 235.776C130.658 235.557 130.616 235.324 130.616 235.078V234.942C130.616 234.661 130.656 234.405 130.736 234.173C130.815 233.94 130.929 233.738 131.077 233.568C131.228 233.397 131.41 233.266 131.624 233.175C131.838 233.081 132.08 233.034 132.349 233.034C132.611 233.034 132.843 233.078 133.046 233.164C133.249 233.251 133.419 233.374 133.555 233.533C133.694 233.693 133.799 233.884 133.87 234.108C133.941 234.329 133.976 234.575 133.976 234.846V235.256H131.036V234.6H133.009V234.525C133.009 234.388 132.983 234.266 132.933 234.159C132.885 234.05 132.813 233.963 132.715 233.899C132.617 233.835 132.491 233.803 132.339 233.803C132.209 233.803 132.097 233.832 132.004 233.889C131.91 233.946 131.834 234.026 131.775 234.128C131.718 234.231 131.674 234.351 131.645 234.49C131.617 234.627 131.604 234.778 131.604 234.942V235.078C131.604 235.226 131.624 235.363 131.665 235.488C131.709 235.614 131.769 235.722 131.846 235.813C131.926 235.904 132.022 235.975 132.134 236.025C132.247 236.075 132.376 236.1 132.52 236.1C132.698 236.1 132.863 236.066 133.015 235.998C133.17 235.927 133.304 235.821 133.415 235.68L133.894 236.199C133.816 236.311 133.71 236.418 133.576 236.521C133.444 236.623 133.284 236.708 133.097 236.774C132.911 236.837 132.698 236.869 132.458 236.869ZM135.521 233.868V236.801H134.533V233.103H135.459L135.521 233.868ZM135.384 234.822H135.111C135.111 234.565 135.141 234.328 135.203 234.111C135.267 233.892 135.359 233.703 135.48 233.544C135.603 233.382 135.754 233.257 135.934 233.168C136.114 233.079 136.323 233.034 136.56 233.034C136.724 233.034 136.874 233.059 137.011 233.11C137.148 233.157 137.265 233.234 137.363 233.339C137.463 233.441 137.541 233.576 137.595 233.742C137.65 233.906 137.677 234.103 137.677 234.333V236.801H136.693V234.443C136.693 234.274 136.67 234.144 136.625 234.053C136.579 233.962 136.514 233.898 136.43 233.862C136.348 233.825 136.249 233.807 136.133 233.807C136.005 233.807 135.893 233.833 135.798 233.885C135.704 233.938 135.627 234.011 135.565 234.104C135.504 234.195 135.458 234.302 135.428 234.426C135.399 234.549 135.384 234.681 135.384 234.822ZM137.585 234.709L137.233 234.754C137.233 234.512 137.263 234.288 137.322 234.08C137.384 233.873 137.474 233.691 137.592 233.533C137.713 233.376 137.862 233.254 138.04 233.168C138.218 233.079 138.423 233.034 138.655 233.034C138.833 233.034 138.995 233.061 139.14 233.113C139.286 233.163 139.41 233.244 139.513 233.356C139.618 233.465 139.698 233.609 139.752 233.786C139.809 233.964 139.838 234.182 139.838 234.439V236.801H138.85V234.439C138.85 234.268 138.827 234.138 138.781 234.05C138.738 233.958 138.674 233.896 138.59 233.862C138.508 233.825 138.41 233.807 138.296 233.807C138.178 233.807 138.074 233.831 137.985 233.879C137.896 233.924 137.822 233.988 137.763 234.07C137.704 234.152 137.659 234.248 137.63 234.357C137.6 234.464 137.585 234.582 137.585 234.709ZM140.443 234.989V234.918C140.443 234.647 140.481 234.397 140.559 234.169C140.636 233.939 140.749 233.74 140.897 233.571C141.045 233.402 141.228 233.271 141.444 233.178C141.661 233.082 141.909 233.034 142.189 233.034C142.469 233.034 142.719 233.082 142.938 233.178C143.156 233.271 143.34 233.402 143.488 233.571C143.638 233.74 143.752 233.939 143.83 234.169C143.907 234.397 143.946 234.647 143.946 234.918V234.989C143.946 235.258 143.907 235.508 143.83 235.738C143.752 235.966 143.638 236.165 143.488 236.336C143.34 236.505 143.158 236.636 142.941 236.729C142.725 236.823 142.476 236.869 142.196 236.869C141.916 236.869 141.666 236.823 141.448 236.729C141.231 236.636 141.048 236.505 140.897 236.336C140.749 236.165 140.636 235.966 140.559 235.738C140.481 235.508 140.443 235.258 140.443 234.989ZM141.427 234.918V234.989C141.427 235.144 141.441 235.289 141.468 235.424C141.495 235.558 141.539 235.676 141.598 235.779C141.659 235.879 141.739 235.958 141.837 236.015C141.935 236.072 142.055 236.1 142.196 236.1C142.333 236.1 142.45 236.072 142.548 236.015C142.646 235.958 142.725 235.879 142.784 235.779C142.843 235.676 142.886 235.558 142.914 235.424C142.943 235.289 142.958 235.144 142.958 234.989V234.918C142.958 234.767 142.943 234.626 142.914 234.494C142.886 234.359 142.842 234.241 142.781 234.138C142.721 234.034 142.643 233.952 142.545 233.892C142.447 233.833 142.328 233.803 142.189 233.803C142.05 233.803 141.932 233.833 141.834 233.892C141.738 233.952 141.659 234.034 141.598 234.138C141.539 234.241 141.495 234.359 141.468 234.494C141.441 234.626 141.427 234.767 141.427 234.918ZM145.754 236.083L146.574 233.103H147.603L146.356 236.801H145.734L145.754 236.083ZM145.19 233.103L146.014 236.087L146.031 236.801H145.406L144.158 233.103H145.19ZM149.698 236.869C149.411 236.869 149.154 236.824 148.926 236.733C148.698 236.639 148.504 236.51 148.345 236.346C148.188 236.182 148.067 235.992 147.983 235.776C147.898 235.557 147.856 235.324 147.856 235.078V234.942C147.856 234.661 147.896 234.405 147.976 234.173C148.056 233.94 148.17 233.738 148.318 233.568C148.468 233.397 148.65 233.266 148.865 233.175C149.079 233.081 149.32 233.034 149.589 233.034C149.851 233.034 150.084 233.078 150.286 233.164C150.489 233.251 150.659 233.374 150.796 233.533C150.935 233.693 151.039 233.884 151.11 234.108C151.181 234.329 151.216 234.575 151.216 234.846V235.256H148.277V234.6H150.249V234.525C150.249 234.388 150.224 234.266 150.174 234.159C150.126 234.05 150.053 233.963 149.955 233.899C149.857 233.835 149.732 233.803 149.579 233.803C149.449 233.803 149.337 233.832 149.244 233.889C149.15 233.946 149.074 234.026 149.015 234.128C148.958 234.231 148.915 234.351 148.885 234.49C148.858 234.627 148.844 234.778 148.844 234.942V235.078C148.844 235.226 148.865 235.363 148.906 235.488C148.949 235.614 149.009 235.722 149.087 235.813C149.166 235.904 149.262 235.975 149.374 236.025C149.488 236.075 149.616 236.1 149.76 236.1C149.938 236.1 150.103 236.066 150.256 235.998C150.411 235.927 150.544 235.821 150.656 235.68L151.134 236.199C151.057 236.311 150.951 236.418 150.816 236.521C150.684 236.623 150.524 236.708 150.338 236.774C150.151 236.837 149.938 236.869 149.698 236.869ZM155.707 235.916V233.103H156.692V236.801H155.765L155.707 235.916ZM155.817 235.157L156.107 235.15C156.107 235.396 156.079 235.625 156.022 235.837C155.965 236.047 155.879 236.229 155.765 236.384C155.651 236.537 155.508 236.656 155.335 236.743C155.162 236.827 154.958 236.869 154.723 236.869C154.543 236.869 154.377 236.844 154.224 236.794C154.073 236.742 153.944 236.661 153.834 236.551C153.727 236.44 153.643 236.297 153.581 236.124C153.522 235.949 153.492 235.738 153.492 235.492V233.103H154.477V235.499C154.477 235.608 154.489 235.7 154.514 235.776C154.542 235.851 154.579 235.912 154.627 235.96C154.675 236.008 154.731 236.042 154.795 236.063C154.861 236.083 154.934 236.093 155.013 236.093C155.216 236.093 155.376 236.052 155.492 235.97C155.61 235.888 155.694 235.777 155.741 235.635C155.792 235.492 155.817 235.332 155.817 235.157ZM158.407 233.892V236.801H157.423V233.103H158.346L158.407 233.892ZM158.264 234.822H157.997C157.997 234.549 158.033 234.302 158.103 234.084C158.174 233.863 158.273 233.675 158.401 233.52C158.528 233.363 158.68 233.243 158.855 233.161C159.033 233.077 159.231 233.034 159.45 233.034C159.623 233.034 159.781 233.059 159.925 233.11C160.069 233.16 160.192 233.239 160.294 233.349C160.399 233.458 160.479 233.603 160.533 233.783C160.59 233.963 160.619 234.183 160.619 234.443V236.801H159.628V234.439C159.628 234.275 159.605 234.148 159.559 234.056C159.514 233.965 159.447 233.901 159.358 233.865C159.271 233.826 159.164 233.807 159.036 233.807C158.904 233.807 158.789 233.833 158.691 233.885C158.595 233.938 158.516 234.011 158.452 234.104C158.39 234.195 158.344 234.302 158.312 234.426C158.28 234.549 158.264 234.681 158.264 234.822ZM163.555 235.916V233.103H164.539V236.801H163.613L163.555 235.916ZM163.664 235.157L163.955 235.15C163.955 235.396 163.926 235.625 163.869 235.837C163.812 236.047 163.727 236.229 163.613 236.384C163.499 236.537 163.356 236.656 163.182 236.743C163.009 236.827 162.805 236.869 162.571 236.869C162.391 236.869 162.224 236.844 162.072 236.794C161.921 236.742 161.791 236.661 161.682 236.551C161.575 236.44 161.49 236.297 161.429 236.124C161.37 235.949 161.34 235.738 161.34 235.492V233.103H162.324V235.499C162.324 235.608 162.337 235.7 162.362 235.776C162.389 235.851 162.427 235.912 162.475 235.96C162.523 236.008 162.579 236.042 162.642 236.063C162.708 236.083 162.781 236.093 162.861 236.093C163.064 236.093 163.223 236.052 163.34 235.97C163.458 235.888 163.541 235.777 163.589 235.635C163.639 235.492 163.664 235.332 163.664 235.157ZM167.291 235.779C167.291 235.708 167.27 235.645 167.229 235.588C167.188 235.531 167.112 235.478 167 235.43C166.891 235.38 166.733 235.335 166.525 235.294C166.338 235.253 166.164 235.201 166.002 235.14C165.843 235.076 165.704 235 165.585 234.911C165.469 234.822 165.378 234.717 165.312 234.596C165.246 234.473 165.213 234.333 165.213 234.176C165.213 234.021 165.246 233.875 165.312 233.738C165.38 233.602 165.477 233.481 165.602 233.376C165.73 233.269 165.885 233.186 166.067 233.127C166.252 233.065 166.459 233.034 166.689 233.034C167.01 233.034 167.286 233.086 167.516 233.188C167.749 233.291 167.927 233.432 168.05 233.612C168.175 233.79 168.238 233.993 168.238 234.22H167.253C167.253 234.125 167.233 234.039 167.192 233.964C167.153 233.887 167.091 233.826 167.007 233.783C166.925 233.737 166.818 233.715 166.686 233.715C166.576 233.715 166.482 233.734 166.402 233.773C166.322 233.809 166.261 233.859 166.218 233.923C166.177 233.985 166.156 234.053 166.156 234.128C166.156 234.185 166.167 234.236 166.19 234.282C166.215 234.325 166.255 234.365 166.31 234.402C166.365 234.438 166.435 234.472 166.522 234.504C166.611 234.534 166.72 234.561 166.85 234.586C167.116 234.641 167.355 234.713 167.564 234.801C167.774 234.888 167.94 235.007 168.063 235.157C168.186 235.305 168.248 235.5 168.248 235.741C168.248 235.905 168.211 236.056 168.138 236.193C168.066 236.329 167.961 236.449 167.824 236.551C167.687 236.652 167.523 236.73 167.332 236.787C167.143 236.842 166.93 236.869 166.693 236.869C166.349 236.869 166.057 236.808 165.818 236.685C165.581 236.562 165.401 236.406 165.278 236.217C165.157 236.025 165.096 235.829 165.096 235.629H166.03C166.034 235.763 166.068 235.871 166.132 235.953C166.198 236.035 166.281 236.095 166.382 236.131C166.484 236.168 166.595 236.186 166.713 236.186C166.841 236.186 166.947 236.169 167.031 236.134C167.115 236.098 167.179 236.05 167.222 235.991C167.268 235.929 167.291 235.859 167.291 235.779ZM170.589 236.869C170.302 236.869 170.045 236.824 169.817 236.733C169.589 236.639 169.395 236.51 169.236 236.346C169.078 236.182 168.958 235.992 168.873 235.776C168.789 235.557 168.747 235.324 168.747 235.078V234.942C168.747 234.661 168.787 234.405 168.866 234.173C168.946 233.94 169.06 233.738 169.208 233.568C169.359 233.397 169.541 233.266 169.755 233.175C169.969 233.081 170.211 233.034 170.48 233.034C170.742 233.034 170.974 233.078 171.177 233.164C171.38 233.251 171.55 233.374 171.686 233.533C171.825 233.693 171.93 233.884 172.001 234.108C172.071 234.329 172.107 234.575 172.107 234.846V235.256H169.167V234.6H171.139V234.525C171.139 234.388 171.114 234.266 171.064 234.159C171.016 234.05 170.943 233.963 170.845 233.899C170.747 233.835 170.622 233.803 170.469 233.803C170.34 233.803 170.228 233.832 170.135 233.889C170.041 233.946 169.965 234.026 169.906 234.128C169.849 234.231 169.805 234.351 169.776 234.49C169.748 234.627 169.735 234.778 169.735 234.942V235.078C169.735 235.226 169.755 235.363 169.796 235.488C169.839 235.614 169.9 235.722 169.977 235.813C170.057 235.904 170.153 235.975 170.264 236.025C170.378 236.075 170.507 236.1 170.651 236.1C170.828 236.1 170.994 236.066 171.146 235.998C171.301 235.927 171.434 235.821 171.546 235.68L172.025 236.199C171.947 236.311 171.841 236.418 171.707 236.521C171.575 236.623 171.415 236.708 171.228 236.774C171.041 236.837 170.828 236.869 170.589 236.869ZM174.851 235.994V231.551H175.843V236.801H174.95L174.851 235.994ZM172.513 234.996V234.925C172.513 234.642 172.545 234.386 172.609 234.155C172.673 233.923 172.766 233.724 172.889 233.557C173.012 233.391 173.164 233.262 173.344 233.171C173.524 233.08 173.729 233.034 173.959 233.034C174.176 233.034 174.365 233.08 174.527 233.171C174.691 233.262 174.83 233.392 174.944 233.561C175.06 233.727 175.153 233.924 175.224 234.152C175.295 234.378 175.346 234.625 175.378 234.894V235.051C175.346 235.308 175.295 235.548 175.224 235.769C175.153 235.99 175.06 236.183 174.944 236.35C174.83 236.514 174.691 236.641 174.527 236.733C174.363 236.824 174.171 236.869 173.952 236.869C173.722 236.869 173.517 236.823 173.337 236.729C173.159 236.636 173.009 236.505 172.886 236.336C172.765 236.168 172.673 235.969 172.609 235.741C172.545 235.514 172.513 235.265 172.513 234.996ZM173.498 234.925V234.996C173.498 235.149 173.509 235.291 173.532 235.424C173.557 235.556 173.597 235.673 173.652 235.776C173.709 235.876 173.781 235.954 173.87 236.011C173.962 236.066 174.072 236.093 174.202 236.093C174.371 236.093 174.51 236.056 174.619 235.981C174.728 235.903 174.811 235.797 174.868 235.663C174.928 235.528 174.962 235.373 174.971 235.198V234.75C174.964 234.607 174.944 234.478 174.909 234.364C174.878 234.248 174.83 234.149 174.766 234.067C174.704 233.985 174.627 233.921 174.533 233.875C174.442 233.83 174.334 233.807 174.209 233.807C174.081 233.807 173.972 233.836 173.881 233.896C173.789 233.953 173.715 234.031 173.658 234.132C173.604 234.232 173.563 234.35 173.535 234.487C173.51 234.621 173.498 234.767 173.498 234.925ZM181.301 235.15H182.323C182.302 235.485 182.21 235.782 182.046 236.042C181.884 236.302 181.658 236.505 181.366 236.651C181.077 236.796 180.728 236.869 180.32 236.869C180.001 236.869 179.715 236.815 179.462 236.705C179.209 236.594 178.993 236.434 178.813 236.227C178.635 236.019 178.499 235.769 178.406 235.475C178.313 235.181 178.266 234.852 178.266 234.487V234.142C178.266 233.777 178.314 233.448 178.409 233.154C178.507 232.858 178.646 232.606 178.826 232.399C179.009 232.191 179.226 232.032 179.479 231.92C179.732 231.808 180.015 231.753 180.327 231.753C180.742 231.753 181.091 231.828 181.376 231.978C181.663 232.129 181.885 232.336 182.043 232.6C182.202 232.865 182.298 233.165 182.33 233.503H181.304C181.293 233.302 181.253 233.132 181.185 232.993C181.116 232.852 181.013 232.746 180.874 232.676C180.737 232.603 180.555 232.566 180.327 232.566C180.156 232.566 180.007 232.598 179.879 232.662C179.752 232.726 179.644 232.822 179.558 232.952C179.471 233.082 179.406 233.246 179.363 233.445C179.322 233.641 179.302 233.871 179.302 234.135V234.487C179.302 234.745 179.321 234.971 179.36 235.167C179.398 235.361 179.458 235.525 179.537 235.659C179.619 235.792 179.724 235.892 179.852 235.96C179.982 236.026 180.138 236.059 180.32 236.059C180.534 236.059 180.711 236.025 180.85 235.957C180.989 235.888 181.095 235.787 181.168 235.653C181.243 235.518 181.287 235.351 181.301 235.15ZM185.587 235.499C185.587 235.41 185.573 235.33 185.546 235.259C185.521 235.187 185.473 235.12 185.403 235.061C185.332 235 185.233 234.939 185.105 234.88C184.978 234.821 184.812 234.759 184.61 234.696C184.384 234.623 184.17 234.541 183.967 234.449C183.767 234.358 183.589 234.252 183.434 234.132C183.281 234.009 183.16 233.866 183.072 233.704C182.985 233.543 182.942 233.355 182.942 233.14C182.942 232.933 182.987 232.745 183.078 232.576C183.17 232.405 183.297 232.26 183.461 232.139C183.625 232.016 183.819 231.921 184.042 231.855C184.268 231.789 184.515 231.756 184.784 231.756C185.151 231.756 185.471 231.822 185.744 231.954C186.018 232.086 186.23 232.268 186.38 232.498C186.533 232.728 186.609 232.991 186.609 233.287H185.591C185.591 233.141 185.56 233.014 185.498 232.905C185.439 232.793 185.348 232.705 185.225 232.641C185.104 232.578 184.951 232.546 184.767 232.546C184.589 232.546 184.441 232.573 184.323 232.628C184.204 232.68 184.115 232.752 184.056 232.843C183.997 232.932 183.967 233.032 183.967 233.144C183.967 233.228 183.988 233.304 184.029 233.373C184.072 233.441 184.136 233.505 184.22 233.564C184.304 233.623 184.408 233.679 184.531 233.732C184.654 233.784 184.796 233.835 184.958 233.885C185.229 233.967 185.468 234.06 185.673 234.162C185.88 234.265 186.053 234.38 186.192 234.508C186.331 234.635 186.436 234.78 186.507 234.942C186.577 235.103 186.613 235.287 186.613 235.492C186.613 235.708 186.57 235.902 186.486 236.073C186.402 236.244 186.28 236.389 186.12 236.507C185.961 236.626 185.771 236.716 185.55 236.777C185.329 236.839 185.081 236.869 184.808 236.869C184.562 236.869 184.319 236.837 184.08 236.774C183.841 236.708 183.623 236.608 183.427 236.476C183.233 236.344 183.078 236.176 182.962 235.97C182.846 235.765 182.788 235.523 182.788 235.242H183.817C183.817 235.397 183.841 235.528 183.888 235.635C183.936 235.743 184.003 235.829 184.09 235.895C184.179 235.961 184.284 236.009 184.405 236.039C184.528 236.068 184.662 236.083 184.808 236.083C184.986 236.083 185.131 236.058 185.245 236.008C185.362 235.958 185.447 235.888 185.502 235.8C185.559 235.711 185.587 235.61 185.587 235.499ZM189.901 235.499C189.901 235.41 189.887 235.33 189.86 235.259C189.835 235.187 189.787 235.12 189.716 235.061C189.645 235 189.546 234.939 189.419 234.88C189.291 234.821 189.126 234.759 188.923 234.696C188.698 234.623 188.483 234.541 188.281 234.449C188.08 234.358 187.902 234.252 187.747 234.132C187.595 234.009 187.474 233.866 187.385 233.704C187.298 233.543 187.255 233.355 187.255 233.14C187.255 232.933 187.301 232.745 187.392 232.576C187.483 232.405 187.611 232.26 187.775 232.139C187.939 232.016 188.132 231.921 188.356 231.855C188.581 231.789 188.829 231.756 189.097 231.756C189.464 231.756 189.784 231.822 190.058 231.954C190.331 232.086 190.543 232.268 190.694 232.498C190.846 232.728 190.923 232.991 190.923 233.287H189.904C189.904 233.141 189.873 233.014 189.812 232.905C189.753 232.793 189.661 232.705 189.538 232.641C189.418 232.578 189.265 232.546 189.08 232.546C188.903 232.546 188.754 232.573 188.636 232.628C188.517 232.68 188.429 232.752 188.369 232.843C188.31 232.932 188.281 233.032 188.281 233.144C188.281 233.228 188.301 233.304 188.342 233.373C188.385 233.441 188.449 233.505 188.533 233.564C188.618 233.623 188.721 233.679 188.844 233.732C188.968 233.784 189.11 233.835 189.272 233.885C189.543 233.967 189.781 234.06 189.986 234.162C190.193 234.265 190.367 234.38 190.506 234.508C190.645 234.635 190.749 234.78 190.82 234.942C190.891 235.103 190.926 235.287 190.926 235.492C190.926 235.708 190.884 235.902 190.8 236.073C190.715 236.244 190.593 236.389 190.434 236.507C190.274 236.626 190.084 236.716 189.863 236.777C189.642 236.839 189.395 236.869 189.121 236.869C188.875 236.869 188.633 236.837 188.393 236.774C188.154 236.708 187.936 236.608 187.74 236.476C187.547 236.344 187.392 236.176 187.276 235.97C187.159 235.765 187.101 235.523 187.101 235.242H188.13C188.13 235.397 188.154 235.528 188.202 235.635C188.25 235.743 188.317 235.829 188.404 235.895C188.492 235.961 188.597 236.009 188.718 236.039C188.841 236.068 188.976 236.083 189.121 236.083C189.299 236.083 189.445 236.058 189.559 236.008C189.675 235.958 189.76 235.888 189.815 235.8C189.872 235.711 189.901 235.61 189.901 235.499Z" fill="#454F59"/>
<rect x="113.782" y="263.396" width="5.25185" height="5.23395" rx="1.5" stroke="#454F59"/>
<path d="M117.829 265.05L115.945 266.929V266.929C115.844 267.029 115.681 267.029 115.58 266.929C115.58 266.929 115.58 266.929 115.58 266.929L114.987 266.338" stroke="#454F59" stroke-linecap="round" stroke-linejoin="round"/>
<path d="M126.451 263.036H127.319L128.597 266.69L129.876 263.036H130.744L128.946 268.013H128.249L126.451 263.036ZM125.983 263.036H126.847L127.005 266.598V268.013H125.983V263.036ZM130.347 263.036H131.216V268.013H130.19V266.598L130.347 263.036ZM133.092 264.314V268.013H132.104V264.314H133.092ZM132.043 263.351C132.043 263.207 132.093 263.089 132.193 262.995C132.293 262.902 132.428 262.855 132.596 262.855C132.763 262.855 132.896 262.902 132.996 262.995C133.099 263.089 133.15 263.207 133.15 263.351C133.15 263.494 133.099 263.613 132.996 263.706C132.896 263.8 132.763 263.846 132.596 263.846C132.428 263.846 132.293 263.8 132.193 263.706C132.093 263.613 132.043 263.494 132.043 263.351ZM134.869 265.104V268.013H133.885V264.314H134.808L134.869 265.104ZM134.726 266.034H134.459C134.459 265.76 134.495 265.514 134.565 265.295C134.636 265.074 134.735 264.886 134.863 264.731C134.99 264.574 135.142 264.455 135.317 264.373C135.495 264.288 135.693 264.246 135.912 264.246C136.085 264.246 136.243 264.271 136.387 264.321C136.531 264.371 136.654 264.451 136.756 264.561C136.861 264.67 136.941 264.815 136.995 264.995C137.052 265.175 137.081 265.395 137.081 265.654V268.013H136.09V265.651C136.09 265.487 136.067 265.359 136.021 265.268C135.976 265.177 135.908 265.113 135.82 265.077C135.733 265.038 135.626 265.019 135.498 265.019C135.366 265.019 135.251 265.045 135.153 265.097C135.057 265.15 134.978 265.223 134.914 265.316C134.852 265.407 134.806 265.514 134.774 265.637C134.742 265.76 134.726 265.892 134.726 266.034ZM138.868 264.314V268.013H137.881V264.314H138.868ZM137.819 263.351C137.819 263.207 137.869 263.089 137.969 262.995C138.07 262.902 138.204 262.855 138.373 262.855C138.539 262.855 138.672 262.902 138.773 262.995C138.875 263.089 138.927 263.207 138.927 263.351C138.927 263.494 138.875 263.613 138.773 263.706C138.672 263.8 138.539 263.846 138.373 263.846C138.204 263.846 138.07 263.8 137.969 263.706C137.869 263.613 137.819 263.494 137.819 263.351ZM140.936 268.013H139.945V263.986C139.945 263.706 140 263.47 140.109 263.279C140.221 263.085 140.377 262.939 140.577 262.841C140.78 262.741 141.021 262.691 141.299 262.691C141.39 262.691 141.477 262.698 141.562 262.711C141.646 262.723 141.728 262.738 141.808 262.756L141.798 263.498C141.754 263.486 141.709 263.478 141.661 263.474C141.613 263.469 141.557 263.467 141.493 263.467C141.375 263.467 141.274 263.487 141.189 263.528C141.107 263.567 141.045 263.625 141.001 263.703C140.958 263.78 140.936 263.875 140.936 263.986V268.013ZM141.675 264.314V265.012H139.395V264.314H141.675ZM143.288 267.596L144.269 264.314H145.325L143.838 268.57C143.806 268.663 143.763 268.764 143.708 268.871C143.656 268.978 143.584 269.079 143.493 269.175C143.404 269.273 143.291 269.353 143.155 269.414C143.02 269.476 142.855 269.506 142.659 269.506C142.566 269.506 142.489 269.501 142.43 269.489C142.371 269.478 142.3 269.462 142.218 269.441V268.72C142.243 268.72 142.269 268.72 142.297 268.72C142.324 268.723 142.35 268.724 142.375 268.724C142.505 268.724 142.611 268.709 142.693 268.679C142.775 268.65 142.841 268.604 142.891 268.543C142.941 268.483 142.981 268.406 143.011 268.31L143.288 267.596ZM142.878 264.314L143.681 266.994L143.821 268.037L143.151 268.108L141.822 264.314H142.878ZM150.407 266.362H151.429C151.409 266.697 151.317 266.994 151.153 267.254C150.991 267.514 150.764 267.717 150.472 267.862C150.183 268.008 149.834 268.081 149.427 268.081C149.108 268.081 148.822 268.026 148.569 267.917C148.316 267.805 148.099 267.646 147.919 267.439C147.741 267.231 147.606 266.98 147.512 266.687C147.419 266.393 147.372 266.063 147.372 265.699V265.354C147.372 264.989 147.42 264.66 147.516 264.366C147.614 264.07 147.753 263.818 147.933 263.61C148.115 263.403 148.333 263.244 148.586 263.132C148.839 263.02 149.121 262.964 149.433 262.964C149.848 262.964 150.198 263.04 150.483 263.19C150.77 263.34 150.992 263.548 151.149 263.812C151.309 264.076 151.404 264.377 151.436 264.714H150.411C150.399 264.514 150.36 264.344 150.291 264.205C150.223 264.064 150.119 263.958 149.98 263.887C149.844 263.814 149.661 263.778 149.433 263.778C149.262 263.778 149.113 263.81 148.986 263.874C148.858 263.937 148.751 264.034 148.664 264.164C148.578 264.294 148.513 264.458 148.469 264.656C148.428 264.852 148.408 265.082 148.408 265.347V265.699C148.408 265.956 148.427 266.183 148.466 266.379C148.505 266.573 148.564 266.737 148.644 266.871C148.726 267.003 148.831 267.104 148.958 267.172C149.088 267.238 149.244 267.271 149.427 267.271C149.641 267.271 149.817 267.237 149.956 267.168C150.095 267.1 150.201 266.999 150.274 266.864C150.349 266.73 150.394 266.562 150.407 266.362ZM154.694 266.71C154.694 266.622 154.68 266.542 154.653 266.471C154.628 266.398 154.58 266.332 154.509 266.273C154.438 266.211 154.339 266.151 154.212 266.092C154.084 266.033 153.919 265.971 153.716 265.907C153.49 265.834 153.276 265.752 153.073 265.661C152.873 265.57 152.695 265.464 152.54 265.343C152.388 265.22 152.267 265.078 152.178 264.916C152.091 264.754 152.048 264.566 152.048 264.352C152.048 264.145 152.094 263.957 152.185 263.788C152.276 263.617 152.404 263.471 152.568 263.351C152.732 263.228 152.925 263.133 153.149 263.067C153.374 263.001 153.622 262.968 153.89 262.968C154.257 262.968 154.577 263.034 154.851 263.166C155.124 263.298 155.336 263.479 155.487 263.71C155.639 263.94 155.716 264.203 155.716 264.499H154.697C154.697 264.353 154.666 264.226 154.605 264.116C154.545 264.005 154.454 263.917 154.331 263.853C154.211 263.789 154.058 263.757 153.873 263.757C153.696 263.757 153.547 263.785 153.429 263.839C153.31 263.892 153.222 263.964 153.162 264.055C153.103 264.144 153.073 264.244 153.073 264.355C153.073 264.44 153.094 264.516 153.135 264.585C153.178 264.653 153.242 264.717 153.326 264.776C153.411 264.835 153.514 264.891 153.637 264.943C153.76 264.996 153.903 265.047 154.065 265.097C154.336 265.179 154.574 265.272 154.779 265.374C154.986 265.477 155.16 265.592 155.299 265.719C155.438 265.847 155.542 265.992 155.613 266.153C155.684 266.315 155.719 266.499 155.719 266.704C155.719 266.92 155.677 267.114 155.593 267.285C155.508 267.456 155.386 267.6 155.227 267.719C155.067 267.837 154.877 267.927 154.656 267.989C154.435 268.05 154.188 268.081 153.914 268.081C153.668 268.081 153.426 268.049 153.186 267.985C152.947 267.919 152.729 267.82 152.533 267.688C152.34 267.556 152.185 267.387 152.069 267.182C151.952 266.977 151.894 266.734 151.894 266.454H152.923C152.923 266.609 152.947 266.74 152.995 266.847C153.043 266.954 153.11 267.041 153.197 267.107C153.285 267.173 153.39 267.221 153.511 267.251C153.634 267.28 153.768 267.295 153.914 267.295C154.092 267.295 154.238 267.27 154.352 267.22C154.468 267.17 154.553 267.1 154.608 267.011C154.665 266.922 154.694 266.822 154.694 266.71ZM159.007 266.71C159.007 266.622 158.993 266.542 158.966 266.471C158.941 266.398 158.893 266.332 158.823 266.273C158.752 266.211 158.653 266.151 158.525 266.092C158.398 266.033 158.232 265.971 158.03 265.907C157.804 265.834 157.59 265.752 157.387 265.661C157.186 265.57 157.009 265.464 156.854 265.343C156.701 265.22 156.58 265.078 156.491 264.916C156.405 264.754 156.362 264.566 156.362 264.352C156.362 264.145 156.407 263.957 156.498 263.788C156.589 263.617 156.717 263.471 156.881 263.351C157.045 263.228 157.239 263.133 157.462 263.067C157.688 263.001 157.935 262.968 158.204 262.968C158.571 262.968 158.891 263.034 159.164 263.166C159.438 263.298 159.65 263.479 159.8 263.71C159.953 263.94 160.029 264.203 160.029 264.499H159.01C159.01 264.353 158.98 264.226 158.918 264.116C158.859 264.005 158.768 263.917 158.645 263.853C158.524 263.789 158.371 263.757 158.187 263.757C158.009 263.757 157.861 263.785 157.742 263.839C157.624 263.892 157.535 263.964 157.476 264.055C157.417 264.144 157.387 264.244 157.387 264.355C157.387 264.44 157.407 264.516 157.448 264.585C157.492 264.653 157.556 264.717 157.64 264.776C157.724 264.835 157.828 264.891 157.951 264.943C158.074 264.996 158.216 265.047 158.378 265.097C158.649 265.179 158.887 265.272 159.093 265.374C159.3 265.477 159.473 265.592 159.612 265.719C159.751 265.847 159.856 265.992 159.927 266.153C159.997 266.315 160.032 266.499 160.032 266.704C160.032 266.92 159.99 267.114 159.906 267.285C159.822 267.456 159.7 267.6 159.54 267.719C159.381 267.837 159.191 267.927 158.969 267.989C158.748 268.05 158.501 268.081 158.228 268.081C157.982 268.081 157.739 268.049 157.5 267.985C157.26 267.919 157.043 267.82 156.847 267.688C156.653 267.556 156.498 267.387 156.382 267.182C156.266 266.977 156.208 266.734 156.208 266.454H157.237C157.237 266.609 157.26 266.74 157.308 266.847C157.356 266.954 157.423 267.041 157.51 267.107C157.599 267.173 157.704 267.221 157.824 267.251C157.948 267.28 158.082 267.295 158.228 267.295C158.406 267.295 158.551 267.27 158.665 267.22C158.781 267.17 158.867 267.1 158.922 267.011C158.979 266.922 159.007 266.822 159.007 266.71ZM163.642 268.013H162.654V264.147C162.654 263.833 162.718 263.567 162.845 263.351C162.975 263.134 163.16 262.97 163.399 262.858C163.641 262.747 163.932 262.691 164.274 262.691C164.468 262.691 164.656 262.71 164.838 262.749C165.02 262.786 165.208 262.833 165.402 262.893L165.259 263.682C165.133 263.643 164.999 263.607 164.855 263.573C164.712 263.539 164.538 263.522 164.336 263.522C164.108 263.522 163.935 263.575 163.816 263.682C163.7 263.787 163.642 263.942 163.642 264.147V268.013ZM164.377 264.314V265.012H162.104V264.314H164.377ZM165.86 264.314V268.013H164.872V264.314H165.86ZM167.723 262.763V268.013H166.735V262.763H167.723ZM170.239 268.081C169.951 268.081 169.694 268.036 169.466 267.944C169.238 267.851 169.045 267.722 168.885 267.558C168.728 267.394 168.607 267.204 168.523 266.987C168.438 266.769 168.396 266.536 168.396 266.29V266.153C168.396 265.873 168.436 265.617 168.516 265.384C168.596 265.152 168.71 264.95 168.858 264.779C169.008 264.608 169.19 264.477 169.405 264.386C169.619 264.293 169.86 264.246 170.129 264.246C170.391 264.246 170.624 264.289 170.826 264.376C171.029 264.463 171.199 264.586 171.336 264.745C171.475 264.905 171.58 265.096 171.65 265.319C171.721 265.54 171.756 265.786 171.756 266.058V266.468H168.817V265.812H170.789V265.736C170.789 265.6 170.764 265.478 170.714 265.371C170.666 265.261 170.593 265.175 170.495 265.111C170.397 265.047 170.272 265.015 170.119 265.015C169.989 265.015 169.877 265.044 169.784 265.101C169.691 265.158 169.614 265.237 169.555 265.34C169.498 265.442 169.455 265.563 169.425 265.702C169.398 265.839 169.384 265.989 169.384 266.153V266.29C169.384 266.438 169.405 266.575 169.446 266.7C169.489 266.826 169.549 266.934 169.627 267.025C169.706 267.116 169.802 267.187 169.914 267.237C170.028 267.287 170.156 267.312 170.3 267.312C170.478 267.312 170.643 267.278 170.796 267.21C170.951 267.139 171.084 267.033 171.196 266.892L171.674 267.411C171.597 267.523 171.491 267.63 171.356 267.732C171.224 267.835 171.065 267.919 170.878 267.985C170.691 268.049 170.478 268.081 170.239 268.081ZM174.316 266.991C174.316 266.92 174.296 266.856 174.255 266.799C174.214 266.742 174.137 266.69 174.026 266.642C173.916 266.592 173.758 266.546 173.551 266.505C173.364 266.464 173.189 266.413 173.028 266.352C172.868 266.288 172.729 266.211 172.611 266.123C172.494 266.034 172.403 265.929 172.337 265.808C172.271 265.685 172.238 265.545 172.238 265.388C172.238 265.233 172.271 265.087 172.337 264.95C172.406 264.814 172.502 264.693 172.628 264.588C172.755 264.481 172.91 264.398 173.093 264.338C173.277 264.277 173.484 264.246 173.715 264.246C174.036 264.246 174.312 264.297 174.542 264.4C174.774 264.502 174.952 264.644 175.075 264.824C175.2 265.001 175.263 265.204 175.263 265.432H174.279C174.279 265.336 174.258 265.251 174.217 265.176C174.178 265.098 174.117 265.038 174.032 264.995C173.95 264.949 173.843 264.926 173.711 264.926C173.602 264.926 173.507 264.946 173.427 264.984C173.348 265.021 173.286 265.071 173.243 265.135C173.202 265.196 173.181 265.265 173.181 265.34C173.181 265.397 173.193 265.448 173.216 265.494C173.241 265.537 173.281 265.577 173.335 265.613C173.39 265.65 173.461 265.684 173.547 265.716C173.636 265.745 173.745 265.773 173.875 265.798C174.142 265.853 174.38 265.924 174.59 266.013C174.799 266.1 174.966 266.218 175.089 266.369C175.212 266.517 175.273 266.712 175.273 266.953C175.273 267.117 175.237 267.268 175.164 267.404C175.091 267.541 174.986 267.661 174.849 267.763C174.713 267.863 174.549 267.942 174.357 267.999C174.168 268.054 173.955 268.081 173.718 268.081C173.374 268.081 173.082 268.02 172.843 267.897C172.606 267.773 172.426 267.617 172.303 267.428C172.182 267.237 172.122 267.041 172.122 266.84H173.055C173.059 266.975 173.094 267.083 173.157 267.165C173.224 267.247 173.307 267.306 173.407 267.343C173.51 267.379 173.62 267.397 173.739 267.397C173.866 267.397 173.972 267.38 174.056 267.346C174.141 267.31 174.205 267.262 174.248 267.203C174.293 267.141 174.316 267.071 174.316 266.991Z" fill="#454F59"/>
<rect opacity="0.8" x="113.282" y="245.084" width="6.25185" height="6.23393" rx="2" fill="#DADADA"/>
<rect opacity="0.8" x="124.65" y="246.785" width="22.734" height="3.40031" rx="1.70016" fill="#DADADA"/>
<rect x="217.384" y="244.801" width="18.7555" height="6.80067" rx="3.40034" fill="#F56F46"/>
<rect x="223.636" y="248.201" width="6.82019" height="0.567108" rx="0.283554" fill="white"/>
<path d="M59.8569 137.963C59.8569 129.002 59.8569 124.521 61.6008 121.099C63.1348 118.088 65.5825 115.64 68.5931 114.107C72.0157 112.363 76.4961 112.363 85.4569 112.363H93.5312V351.438V351.438C84.5276 351.438 80.0258 351.438 76.385 350.245C69.1234 347.866 63.4287 342.172 61.0497 334.91C59.8569 331.269 59.8569 326.767 59.8569 317.764V137.963Z" fill="#F5F7FA"/>
<g opacity="0.4" clip-path="url(#clip2_270_107564)">
<path fill-rule="evenodd" clip-rule="evenodd" d="M76.9074 240.749C75.1679 240.749 73.7578 239.343 73.7578 237.608C73.7578 235.874 75.1679 234.468 76.9074 234.468C78.6468 234.468 80.057 235.874 80.057 237.608C80.057 239.343 78.6468 240.749 76.9074 240.749Z" fill="#172153"/>
</g>
<g opacity="0.4" clip-path="url(#clip3_270_107564)">
<path d="M76.9073 213.334L80.4245 219.408H73.3901L76.9073 213.334Z" fill="#172153"/>
</g>
<g opacity="0.4" clip-path="url(#clip4_270_107564)">
<rect width="5.15013" height="5.15013" transform="matrix(0.708119 0.706093 -0.708119 0.706093 76.9073 192.034)" fill="#172153"/>
</g>
<g clip-path="url(#clip5_270_107564)">
<path fill-rule="evenodd" clip-rule="evenodd" d="M76.9074 178.055C75.1679 178.055 73.7578 176.649 73.7578 174.915C73.7578 173.18 75.1679 171.774 76.9074 171.774C78.6468 171.774 80.057 173.18 80.057 174.915C80.057 176.649 78.6468 178.055 76.9074 178.055Z" fill="#172153"/>
</g>
<path fill-rule="evenodd" clip-rule="evenodd" d="M76.434 131.905L77.8851 135.138C77.8993 135.166 77.9143 135.193 77.9302 135.218C78.082 135.452 78.343 135.598 78.6196 135.598L78.6644 135.604L77.4753 143.416C77.4178 143.563 77.3219 143.563 77.2708 143.416L76.3822 140.923L75.3593 143.423C75.3018 143.569 75.2059 143.569 75.1548 143.423L74.1255 135.598H74.2534C74.4552 135.598 74.6487 135.52 74.7976 135.388L74.7974 135.387C74.8697 135.321 74.9305 135.243 74.9801 135.155C74.983 135.149 74.9858 135.144 74.9886 135.138L75.1761 134.72L76.434 131.905Z" fill="#172153"/>
<path fill-rule="evenodd" clip-rule="evenodd" d="M71.804 127.504C71.7592 127.351 71.8487 127.242 72.0021 127.242H73.2743C73.3638 127.242 73.4469 127.319 73.4725 127.395L74.4058 131.062H74.4505L76.1318 127.255C76.1638 127.191 76.2277 127.134 76.3172 127.134H76.5154C76.6113 127.134 76.6752 127.185 76.7008 127.255L78.3821 131.062H78.4268L79.3602 127.395C79.3793 127.319 79.4688 127.242 79.5583 127.242H80.8305C80.9839 127.242 81.067 127.351 81.0287 127.504L78.9766 134.774C78.9574 134.863 78.8679 134.927 78.7784 134.927H78.6058C78.5291 134.927 78.4524 134.876 78.4204 134.806L76.4323 130.38H76.4003L74.425 134.806C74.393 134.87 74.3163 134.927 74.2396 134.927H74.067C73.9775 134.927 73.8944 134.863 73.8688 134.774L71.804 127.504Z" fill="#172153"/>
</g>
<g filter="url(#filter0_d_270_107564)">
<g clip-path="url(#clip6_270_107564)">
<g clip-path="url(#clip7_270_107564)">
<path d="M147.472 313.234L137.996 313.838C135.843 314.006 133.925 315.144 132.734 316.962L123.808 330.581C122.905 331.959 122.761 333.684 123.423 335.195C124.086 336.706 125.448 337.759 127.066 338.012L135.774 340.057C137.431 331.182 141.515 321.391 147.472 313.234Z" fill="#172153"/>
<path d="M184.887 346.676L184.941 356.255C184.923 358.434 183.928 360.443 182.213 361.766L169.358 371.685C168.057 372.688 166.361 372.951 164.821 372.388C163.282 371.825 162.147 370.527 161.786 368.915L159.165 360.292C167.828 358.014 177.23 353.232 184.887 346.676Z" fill="#172153"/>
<path d="M207.987 291.961C208.359 298.851 208.095 313.541 200.968 327.442C196.226 336.691 185.785 348.819 172.064 355.974C169.592 357.702 161.305 360.521 157.225 361.85C155.806 362.312 154.258 361.924 153.208 360.865L136.118 343.623C135.232 342.729 134.817 341.475 135.05 340.238C135.699 336.788 137.315 329.469 140.203 323.831C147.296 309.988 159.317 299.455 168.484 294.671C180.019 288.651 192.102 287.484 199.738 287.484C201.224 287.484 202.541 287.529 203.653 287.59C205.993 287.719 207.859 289.601 207.987 291.961Z" fill="#F56F46"/>
<path d="M188.948 319.672C188.948 326.783 183.235 332.547 176.186 332.547C169.138 332.547 163.424 326.783 163.424 319.672C163.424 312.561 169.138 306.797 176.186 306.797C183.235 306.797 188.948 312.561 188.948 319.672Z" fill="white"/>
<path d="M135.049 340.238C135.698 336.788 137.314 329.469 140.203 323.831C140.203 323.831 152.79 330.4 158.107 335.765C163.424 341.13 172.064 355.974 172.064 355.974C169.592 357.702 161.304 360.521 157.224 361.85C155.806 362.312 154.257 361.924 153.207 360.865L136.117 343.623C135.232 342.729 134.817 341.475 135.049 340.238Z" fill="#172153"/>
<path fill-rule="evenodd" clip-rule="evenodd" d="M172.064 355.974C172.064 355.974 172.064 355.974 172.064 355.974C169.592 357.702 161.304 360.521 157.224 361.85C155.806 362.312 154.257 361.924 153.207 360.865L136.117 343.623C135.395 342.894 134.986 341.926 134.986 340.923C134.986 340.696 135.006 340.467 135.049 340.239C135.698 336.788 137.314 329.47 140.203 323.832C140.203 323.832 166.615 312.162 175.123 320.745C183.604 329.301 172.137 355.804 172.064 355.974Z" fill="#005BC6"/>
<path fill-rule="evenodd" clip-rule="evenodd" d="M163.583 317.638C168.258 317.391 172.525 318.124 175.123 320.745C177.721 323.366 178.447 327.671 178.202 332.387C177.546 332.492 176.872 332.547 176.186 332.547C169.138 332.547 163.424 326.783 163.424 319.672C163.424 318.98 163.479 318.301 163.583 317.638Z" fill="#FFD147"/>
<path d="M121.428 361.756C122.098 361.756 122.767 361.498 123.278 360.982L131.823 352.362C132.845 351.33 132.845 349.659 131.823 348.628C130.801 347.596 129.144 347.596 128.122 348.628L119.577 357.248C118.555 358.279 118.555 359.951 119.577 360.982C120.088 361.498 120.758 361.756 121.428 361.756Z" fill="#172153"/>
<path d="M139.654 356.527C138.633 355.496 136.975 355.496 135.953 356.527L119.525 373.101C118.503 374.132 118.503 375.804 119.525 376.835C120.036 377.351 120.706 377.608 121.376 377.608C122.046 377.608 122.716 377.351 123.226 376.835L139.654 360.261C140.677 359.23 140.677 357.559 139.654 356.527V356.527Z" fill="#172153"/>
<path d="M143.783 364.429L135.239 373.049C134.217 374.081 134.217 375.752 135.239 376.783C135.75 377.299 136.42 377.557 137.089 377.557C137.759 377.557 138.429 377.299 138.94 376.783L147.485 368.163C148.507 367.132 148.507 365.46 147.485 364.429C146.463 363.398 144.805 363.398 143.783 364.429Z" fill="#172153"/>
</g>
</g>
</g>
</g>
<defs>
<filter id="filter0_d_270_107564" x="91.1221" y="264.714" width="143.943" height="143.763" filterUnits="userSpaceOnUse" color-interpolation-filters="sRGB">
<feFlood flood-opacity="0" result="BackgroundImageFix"/>
<feColorMatrix in="SourceAlpha" type="matrix" values="0 0 0 0 0 0 0 0 0 0 0 0 0 0 0 0 0 0 127 0" result="hardAlpha"/>
<feOffset dy="4"/>
<feGaussianBlur stdDeviation="12"/>
<feColorMatrix type="matrix" values="0 0 0 0 0 0 0 0 0 0 0 0 0 0 0 0 0 0 0.05 0"/>
<feBlend mode="normal" in2="BackgroundImageFix" result="effect1_dropShadow_270_107564"/>
<feBlend mode="normal" in="SourceGraphic" in2="effect1_dropShadow_270_107564" result="shape"/>
</filter>
<linearGradient id="paint0_linear_270_107564" x1="23.5428" y1="425.856" x2="27.7822" y2="-152.008" gradientUnits="userSpaceOnUse">
<stop stop-color="#E25D35"/>
<stop offset="0.260417" stop-color="#F56F46"/>
<stop offset="1" stop-color="#FFD147"/>
</linearGradient>
<linearGradient id="paint1_linear_270_107564" x1="42.6246" y1="228.086" x2="44.8711" y2="-165.962" gradientUnits="userSpaceOnUse">
<stop stop-color="#E25D35"/>
<stop offset="0.260417" stop-color="#F56F46"/>
<stop offset="1" stop-color="#FFD147"/>
</linearGradient>
<linearGradient id="paint2_linear_270_107564" x1="68.109" y1="109.945" x2="71.4944" y2="-325.135" gradientUnits="userSpaceOnUse">
<stop stop-color="#E25D35"/>
<stop offset="0.260417" stop-color="#F56F46"/>
<stop offset="1" stop-color="#FFD147"/>
</linearGradient>
<clipPath id="clip0_270_107564">
<rect width="400" height="400" fill="white"/>
</clipPath>
<clipPath id="clip1_270_107564">
<rect width="13.4273" height="10.201" fill="white" transform="translate(294.017 125.397)"/>
</clipPath>
<clipPath id="clip2_270_107564">
<rect width="7.95689" height="7.93413" fill="white" transform="translate(72.9289 233.641)"/>
</clipPath>
<clipPath id="clip3_270_107564">
<rect width="7.95689" height="7.9341" fill="white" transform="translate(72.9289 212.673)"/>
</clipPath>
<clipPath id="clip4_270_107564">
<rect width="7.95689" height="7.93412" fill="white" transform="translate(72.9289 191.704)"/>
</clipPath>
<clipPath id="clip5_270_107564">
<rect width="7.95689" height="7.93412" fill="white" transform="translate(72.9289 170.948)"/>
</clipPath>
<clipPath id="clip6_270_107564">
<rect width="90" height="91" fill="white" transform="translate(118.093 287.096)"/>
</clipPath>
<clipPath id="clip7_270_107564">
<rect width="89.3333" height="90.125" fill="white" transform="translate(118.758 287.484)"/>
</clipPath>
</defs>
</svg>
